<?xml version="1.0" standalone="no"?>
<!DOCTYPE svg PUBLIC "-//W3C//DTD SVG 20010904//EN"
 "http://www.w3.org/TR/2001/REC-SVG-20010904/DTD/svg10.dtd">
<svg version="1.0" xmlns="http://www.w3.org/2000/svg"
 width="512.000000pt" height="512.000000pt" viewBox="0 0 512.000000 512.000000"
 preserveAspectRatio="xMidYMid meet">

<g transform="translate(0.000000,512.000000) scale(0.100000,-0.100000)"
fill="#000000" stroke="none">
<path d="M1695 4485 c-275 -59 -537 -140 -779 -241 l-136 -57 -74 -116 c-330
-522 -544 -1059 -641 -1610 -50 -287 -59 -412 -58 -766 1 -181 5 -355 10 -385
l8 -54 130 -89 c177 -120 300 -192 495 -291 233 -118 642 -278 669 -262 26 16
271 411 271 437 0 4 -26 17 -57 30 -88 34 -350 167 -359 180 -6 11 36 55 76
78 11 7 47 -4 117 -34 671 -287 1437 -322 2128 -96 97 31 280 102 327 127 28
15 31 14 79 -23 27 -20 48 -42 46 -48 -5 -14 -223 -127 -322 -166 -44 -18 -84
-36 -89 -40 -19 -17 239 -448 270 -449 5 0 55 15 110 34 368 124 720 299 1049
523 l130 89 9 64 c16 124 12 691 -7 852 -82 695 -294 1284 -684 1900 l-74 116
-137 57 c-253 105 -583 205 -826 250 l-90 17 -17 -24 c-10 -12 -42 -74 -71
-137 l-53 -113 -50 6 c-27 3 -93 11 -145 18 -124 16 -645 16 -775 0 -55 -6
-122 -14 -150 -18 l-50 -5 -65 133 c-49 100 -70 134 -85 135 -11 1 -69 -9
-130 -22z m189 -1643 c114 -53 205 -156 256 -287 20 -51 24 -79 24 -180 0
-138 -14 -198 -70 -291 -160 -267 -475 -312 -689 -99 -160 160 -199 419 -95
632 35 70 99 146 160 188 118 82 286 97 414 37z m1712 -7 c171 -84 274 -259
274 -465 0 -150 -47 -274 -142 -376 -223 -238 -582 -169 -723 139 -133 289 2
635 283 728 44 15 77 18 145 15 77 -3 98 -8 163 -41z" fill="currentColor" />
</g>
</svg>
