<?xml version="1.0" standalone="no"?>
<!DOCTYPE svg PUBLIC "-//W3C//DTD SVG 20010904//EN"
 "http://www.w3.org/TR/2001/REC-SVG-20010904/DTD/svg10.dtd">
<svg version="1.0" xmlns="http://www.w3.org/2000/svg"
 width="512.000000pt" height="512.000000pt" viewBox="0 0 512.000000 512.000000"
 preserveAspectRatio="xMidYMid meet">

<g transform="translate(0.000000,512.000000) scale(0.100000,-0.100000)"
fill="#000000" stroke="none">
<path d="M0 2560 l0 -2460 450 0 450 0 0 2460 0 2460 -450 0 -450 0 0 -2460z"/>
<path d="M3100 5009 c-254 -26 -543 -121 -753 -248 -760 -459 -1091 -1359
-805 -2190 179 -523 608 -952 1134 -1134 468 -162 968 -133 1409 83 202 98
352 208 516 377 411 423 592 1011 490 1593 -166 949 -1039 1615 -1991 1519z"/>
</g>
</svg>
