<?xml version="1.0" standalone="no"?>
<!DOCTYPE svg PUBLIC "-//W3C//DTD SVG 20010904//EN"
 "http://www.w3.org/TR/2001/REC-SVG-20010904/DTD/svg10.dtd">
<svg version="1.0" xmlns="http://www.w3.org/2000/svg"
 width="512.000000pt" height="512.000000pt" viewBox="0 0 512.000000 512.000000"
 preserveAspectRatio="xMidYMid meet">

<g transform="translate(0.000000,512.000000) scale(0.100000,-0.100000)"
fill="#000000" stroke="none">
<path d="M2315 5109 c-800 -83 -1501 -518 -1927 -1196 -604 -961 -490 -2237
274 -3068 425 -462 951 -737 1583 -827 119 -17 512 -16 635 1 622 86 1148 360
1572 820 349 378 572 862 650 1406 17 118 17 512 0 630 -71 497 -262 943 -557
1300 -418 506 -982 825 -1630 921 -123 18 -478 26 -600 13z m1435 -1037 c99
-50 147 -140 137 -259 -9 -112 -80 -196 -194 -229 -143 -41 -300 59 -328 208
-7 36 -9 37 -64 48 -31 7 -147 32 -259 56 -112 24 -211 44 -221 44 -14 0 -30
-60 -99 -390 -46 -215 -81 -394 -78 -399 3 -4 50 -11 104 -14 269 -16 605
-125 831 -270 l53 -34 49 33 c76 51 138 67 234 62 100 -5 172 -37 242 -106
169 -169 135 -448 -72 -581 l-40 -26 3 -95 c8 -251 -120 -499 -352 -686 -205
-165 -464 -278 -770 -335 -142 -27 -448 -37 -596 -20 -630 72 -1129 412 -1240
845 -14 56 -20 112 -20 191 l0 113 -30 12 c-17 7 -54 39 -84 71 -70 75 -98
146 -98 249 0 103 28 174 99 250 74 80 141 112 249 118 96 5 158 -12 234 -63
l50 -34 53 36 c219 148 621 272 885 273 55 0 63 3 72 23 5 12 50 214 99 450
50 235 95 436 101 447 6 11 21 22 34 26 14 3 159 -23 336 -60 l312 -66 45 50
c92 102 202 124 323 62z"/>
<path d="M1884 2544 c-133 -49 -204 -196 -162 -338 16 -55 109 -148 164 -164
144 -42 292 30 338 166 42 121 -14 261 -127 320 -60 31 -154 38 -213 16z"/>
<path d="M3058 2544 c-54 -16 -125 -80 -152 -137 -80 -171 47 -377 233 -377
86 0 130 18 191 80 62 61 80 105 80 191 0 138 -126 261 -264 258 -23 0 -62 -7
-88 -15z"/>
<path d="M1936 1689 c-40 -32 -36 -73 14 -119 173 -160 589 -222 930 -139 103
25 230 84 288 134 38 33 43 42 40 73 -2 24 -11 41 -29 55 -32 23 -52 18 -106
-25 -145 -118 -468 -167 -745 -114 -128 25 -204 57 -307 131 -41 30 -51 31
-85 4z"/>
</g>
</svg>
