<?xml version="1.0" standalone="no"?>
<!DOCTYPE svg PUBLIC "-//W3C//DTD SVG 20010904//EN"
 "http://www.w3.org/TR/2001/REC-SVG-20010904/DTD/svg10.dtd">
<svg version="1.0" xmlns="http://www.w3.org/2000/svg"
 width="512.000000pt" height="512.000000pt" viewBox="0 0 512.000000 512.000000"
 preserveAspectRatio="xMidYMid meet">

<g transform="translate(0.000000,512.000000) scale(0.100000,-0.100000)"
fill="#000000" stroke="none">
<path d="M2370 5113 c-227 -21 -416 -59 -600 -118 -749 -243 -1347 -819 -1618
-1560 -75 -205 -132 -473 -148 -696 -10 -141 -8 -142 168 -214 162 -66 617
-266 783 -345 145 -68 159 -68 260 5 152 110 281 153 480 162 72 3 138 10 147
14 16 9 129 153 384 489 l110 145 12 140 c13 160 36 253 92 371 121 252 350
440 630 516 123 33 347 33 470 0 374 -102 650 -403 710 -776 19 -117 8 -311
-24 -419 -109 -366 -404 -625 -779 -683 -70 -11 -113 -23 -137 -39 -78 -52
-726 -593 -737 -616 -6 -13 -19 -70 -27 -127 -27 -177 -99 -323 -224 -454
-236 -247 -575 -330 -897 -219 -228 78 -423 265 -505 486 -58 155 -34 133
-286 255 -251 123 -273 128 -326 81 -49 -44 -45 -92 17 -201 336 -590 871
-1016 1513 -1204 260 -77 434 -101 727 -100 262 1 415 19 640 78 178 46 302
93 490 186 272 133 479 284 697 508 417 428 664 968 718 1572 46 521 -80 1061
-358 1530 -132 222 -372 498 -577 665 -458 372 -1048 580 -1630 573 -77 -1
-156 -3 -175 -5z"/>
<path d="M3245 3623 c-218 -31 -389 -179 -451 -388 -21 -70 -23 -208 -4 -275
91 -331 456 -494 762 -339 79 40 183 143 226 225 152 290 7 649 -303 752 -62
20 -177 33 -230 25z"/>
<path d="M1711 2006 c-31 -17 -50 -53 -51 -93 0 -51 42 -90 123 -112 154 -42
239 -150 241 -306 1 -99 -24 -161 -92 -228 -111 -109 -281 -123 -411 -35 -63
42 -84 48 -126 37 -40 -11 -75 -57 -75 -100 0 -41 40 -89 110 -131 82 -49 144
-68 245 -75 157 -11 307 48 414 162 276 295 149 764 -238 879 -66 19 -108 20
-140 2z"/>
</g>
</svg>
