<?xml version="1.0" standalone="no"?>
<!DOCTYPE svg PUBLIC "-//W3C//DTD SVG 20010904//EN"
 "http://www.w3.org/TR/2001/REC-SVG-20010904/DTD/svg10.dtd">
<svg version="1.0" xmlns="http://www.w3.org/2000/svg"
 width="512.000000pt" height="512.000000pt" viewBox="0 0 512.000000 512.000000"
 preserveAspectRatio="xMidYMid meet">

<g transform="translate(0.000000,512.000000) scale(0.100000,-0.100000)"
fill="#000000" stroke="none">
<path d="M3372 4626 c-171 -33 -330 -101 -454 -195 -93 -70 -216 -206 -272
-300 -57 -95 -108 -224 -131 -336 -20 -92 -23 -300 -6 -384 6 -30 9 -56 7 -58
-6 -7 -214 16 -346 38 -662 110 -1288 458 -1733 964 -39 44 -74 82 -79 83 -5
2 -24 -30 -43 -71 -203 -440 -89 -947 283 -1256 l73 -61 -35 0 c-86 0 -244 41
-359 93 -37 16 -69 28 -71 26 -8 -11 15 -199 34 -272 25 -96 90 -239 149 -326
135 -198 341 -346 581 -417 l75 -22 -60 -13 c-38 -9 -122 -14 -233 -14 -111 0
-172 -4 -172 -10 0 -6 24 -60 54 -120 121 -245 320 -426 576 -522 89 -33 231
-63 302 -63 23 0 37 -4 33 -10 -12 -20 -232 -160 -328 -209 -320 -163 -641
-236 -1014 -229 l-192 3 52 -32 c97 -60 324 -173 451 -223 542 -215 1146 -265
1741 -145 1025 207 1845 951 2186 1985 108 328 158 634 159 961 l0 115 78 62
c103 81 293 277 371 381 34 46 60 85 58 87 -2 2 -51 -14 -110 -36 -114 -43
-309 -94 -403 -105 -65 -8 -66 -9 19 55 86 64 205 196 260 288 39 64 109 212
103 219 0 0 -62 -29 -137 -66 -135 -67 -322 -136 -453 -166 l-69 -15 -54 47
c-142 124 -295 207 -458 249 -124 32 -321 41 -433 20z"/>
</g>
</svg>
