<?xml version="1.0" standalone="no"?>
<!DOCTYPE svg PUBLIC "-//W3C//DTD SVG 20010904//EN"
 "http://www.w3.org/TR/2001/REC-SVG-20010904/DTD/svg10.dtd">
<svg version="1.0" xmlns="http://www.w3.org/2000/svg"
 width="512.000000pt" height="512.000000pt" viewBox="0 0 512.000000 512.000000"
 preserveAspectRatio="xMidYMid meet">

<g transform="translate(0.000000,512.000000) scale(0.100000,-0.100000)"
fill="#000000" stroke="none">
<path d="M822 4667 l-452 -452 0 -1653 0 -1652 545 0 545 0 0 -450 c0 -247 3
-450 8 -450 4 0 210 203 457 450 l450 450 365 0 365 0 823 823 822 822 0 1283
0 1282 -1738 0 -1737 0 -453 -453z m3568 -919 l0 -1003 -367 -367 -368 -368
-365 0 -365 0 -317 -317 -318 -318 0 318 0 317 -415 0 -415 0 0 1370 0 1370
1465 0 1465 0 0 -1002z"/>
<path d="M2470 3565 l0 -545 180 0 180 0 0 545 0 545 -180 0 -180 0 0 -545z"/>
<path d="M3470 3565 l0 -545 185 0 185 0 0 545 0 545 -185 0 -185 0 0 -545z"/>
</g>
</svg>
