<?xml version="1.0" standalone="no"?>
<!DOCTYPE svg PUBLIC "-//W3C//DTD SVG 20010904//EN"
 "http://www.w3.org/TR/2001/REC-SVG-20010904/DTD/svg10.dtd">
<svg version="1.0" xmlns="http://www.w3.org/2000/svg"
 width="512.000000pt" height="512.000000pt" viewBox="0 0 512.000000 512.000000"
 preserveAspectRatio="xMidYMid meet">

<g transform="translate(0.000000,512.000000) scale(0.100000,-0.100000)"
fill="#000000" stroke="none">
<path d="M1830 4353 c-695 -22 -1071 -50 -1259 -94 -25 -6 -82 -28 -126 -49
-136 -65 -250 -187 -313 -336 -46 -108 -87 -380 -114 -744 -16 -227 -16 -913
0 -1140 27 -363 68 -635 114 -744 60 -144 176 -269 312 -335 151 -74 336 -98
1011 -133 325 -17 1884 -17 2210 0 672 35 857 59 1010 132 134 64 253 191 313
336 46 111 88 388 114 749 16 228 16 906 0 1130 -26 362 -68 640 -114 749 -82
196 -258 344 -463 390 -174 38 -569 69 -1120 86 -278 9 -1332 11 -1575 3z
m927 -1441 c337 -191 612 -349 612 -352 0 -3 -275 -161 -612 -352 -337 -192
-636 -362 -664 -378 l-53 -30 0 760 0 760 53 -30 c28 -16 327 -186 664 -378z"/>
</g>
</svg>
