<?xml version="1.0" encoding="UTF-8"?>
<svg version="1.1" xmlns="http://www.w3.org/2000/svg" width="2400" height="2400">
<path d="M0 0 C26.4 0 52.8 0 80 0 C80 33.99 80 67.98 80 103 C83.63 103 87.26 103 91 103 C96.72357136 103.35870632 102.42274224 103.95848076 108.125 104.5625 C108.94147003 104.64825287 109.75794006 104.73400574 110.59915161 104.82235718 C200.17726785 114.38079684 288.14856817 143.04458006 414 219 C414.8137207 219.57137695 415.62744141 220.14275391 416.46582031 220.73144531 C426.36686476 227.71445783 435.97941637 234.98879435 445.35839844 242.65820312 C446.8619408 243.88715446 448.37205448 245.10805483 449.8828125 246.328125 C461.40616298 255.66775017 472.55430584 265.3792777 483.39111328 275.50439453 C485.00089019 277.00082751 486.62140976 278.4846195 488.24609375 279.96484375 C497.93078396 288.79999973 507.5808318 297.77907779 516.0703125 307.7890625 C518.21102631 310.24178318 520.42823777 312.61059858 522.65698242 314.9831543 C527.92941449 320.59724176 533.00955269 326.28245263 537.828125 332.296875 C540.15553214 335.19357598 542.54263314 338.03388465 544.9375 340.875 C550.13860875 347.11633051 555.13855076 353.49241051 560 360 C560.70068604 360.93779297 560.70068604 360.93779297 561.41552734 361.89453125 C576.42767988 382.10338975 590.46477064 403.16624976 603 425 C603.42152344 425.73412109 603.84304688 426.46824219 604.27734375 427.22460938 C607.2563641 432.44485532 610.14833193 437.70925018 613 443 C613.45842285 443.84836426 613.9168457 444.69672852 614.38916016 445.57080078 C652.65552877 516.72941178 677.10676494 595.17109113 689 701 C689.13099342 702.54951103 689.13099342 702.54951103 689.26463318 704.13032532 C689.97718624 713.18699887 690.17965477 722.20971124 690.203125 731.2890625 C690.20595238 732.0476997 690.20877975 732.8063369 690.21169281 733.5879631 C690.22658097 737.62358679 690.23586891 741.65917587 690.24023438 745.69482422 C690.24456482 748.94233776 690.25825727 752.18957746 690.28125 755.43701172 C690.40377286 773.12408001 690.13385687 790.67337873 688.625 808.3046875 C688.56331886 809.02622639 688.50163773 809.74776527 688.43808746 810.49116898 C681.67846226 887.69845521 660.55161246 962.84394841 625.23339844 1037.06811523 C623.85140928 1039.92191539 623 1041.78231934 623 1045 C623.63164063 1045.35078613 624.26328125 1045.70157227 624.9140625 1046.06298828 C638.66448098 1053.7084389 652.3289597 1061.47746848 665.90234375 1069.43359375 C671.16167051 1072.51535679 676.43702767 1075.56842558 681.71948242 1078.61035156 C683.89145829 1079.86145621 686.06221343 1081.1146827 688.23168945 1082.37011719 C693.21775172 1085.25462225 698.20941623 1088.1258159 703.23516846 1090.94076538 C706.03731284 1092.51322105 708.82983413 1094.10268107 711.625 1095.6875 C713.19121094 1096.55181641 713.19121094 1096.55181641 714.7890625 1097.43359375 C715.7378125 1097.975 716.6865625 1098.51640625 717.6640625 1099.07421875 C718.50404785 1099.54432373 719.3440332 1100.01442871 720.20947266 1100.4987793 C720.80034668 1100.99418213 721.3912207 1101.48958496 722 1102 C722 1106.52244194 721.14477917 1107.85555946 718.8125 1111.625 C715.58556278 1116.96387581 712.69890927 1122.37830879 710 1128 C709.34 1128 708.68 1128 708 1128 C707.79375 1128.78375 707.5875 1129.5675 707.375 1130.375 C705.85827145 1134.37364799 703.84018306 1137.69480232 701.59765625 1141.3203125 C699.15077612 1145.42437062 697.06946938 1149.69623625 695 1154 C694.34 1154 693.68 1154 693 1154 C692.79375 1154.78375 692.5875 1155.5675 692.375 1156.375 C690.80576961 1160.51206194 688.68725656 1163.99412221 686.33984375 1167.73046875 C684.87096434 1170.03714501 684.87096434 1170.03714501 684 1173 C679.65439694 1172.05408722 676.08932353 1169.98583739 672.25 1167.8125 C671.46560547 1167.37252686 670.68121094 1166.93255371 669.87304688 1166.47924805 C661.30501637 1161.65016092 652.82256759 1156.67331345 644.3359375 1151.703125 C637.94717979 1147.96365393 631.53881811 1144.25878681 625.125 1140.5625 C623.52845581 1139.64223022 623.52845581 1139.64223022 621.8996582 1138.70336914 C618.5999928 1136.80186284 615.29999978 1134.90092593 612 1133 C607.8036869 1130.58216338 603.60779716 1128.16359338 599.41229248 1125.74435425 C597.72901778 1124.77393527 596.04542113 1123.80407481 594.36181641 1122.83422852 C593.33878418 1122.24440186 592.31575195 1121.6545752 591.26171875 1121.046875 C590.36412842 1120.52963867 589.46653809 1120.01240234 588.54174805 1119.47949219 C586.01421255 1118.0082728 583.5042345 1116.51048171 581 1115 C579.8830143 1116.52316231 578.76604906 1118.04633963 577.64916992 1119.56958008 C576.65878453 1120.91992516 575.66805113 1122.27001506 574.67700195 1123.61987305 C572.2142183 1126.97525597 569.75540015 1130.3332315 567.3125 1133.703125 C554.47428994 1151.38259966 540.94606989 1168.36858595 526.23046875 1184.5234375 C524.36050206 1186.59972275 522.52071116 1188.69612326 520.6875 1190.8046875 C517.14228772 1194.86325295 513.50251761 1198.82304904 509.8125 1202.75 C509.16466553 1203.43956787 508.51683105 1204.12913574 507.84936523 1204.83959961 C500.27470225 1212.86961591 492.66386067 1220.87742929 484.24609375 1228.03515625 C481.78264765 1230.19013606 479.40000427 1232.41855036 477.01464844 1234.65917969 C471.40111344 1239.93068208 465.7167422 1245.01019777 459.703125 1249.828125 C456.80642402 1252.15553214 453.96611535 1254.54263314 451.125 1256.9375 C444.88366949 1262.13860875 438.50758949 1267.13855076 432 1272 C431.06220703 1272.70068604 431.06220703 1272.70068604 430.10546875 1273.41552734 C409.89661025 1288.42767988 388.83375024 1302.46477064 367 1315 C366.26587891 1315.42152344 365.53175781 1315.84304688 364.77539062 1316.27734375 C359.55514468 1319.2563641 354.29074982 1322.14833193 349 1325 C348.15163574 1325.45842285 347.30327148 1325.9168457 346.42919922 1326.38916016 C275.27058822 1364.65552877 196.82890887 1389.10676494 91 1401 C89.45048897 1401.13099342 89.45048897 1401.13099342 87.86967468 1401.26463318 C78.81300113 1401.97718624 69.79028876 1402.17965477 60.7109375 1402.203125 C59.5729817 1402.20736607 59.5729817 1402.20736607 58.4120369 1402.21169281 C54.37641321 1402.22658097 50.34082413 1402.23586891 46.30517578 1402.24023438 C43.05766224 1402.24456482 39.81042254 1402.25825727 36.56298828 1402.28125 C18.87591999 1402.40377286 1.32662127 1402.13385687 -16.3046875 1400.625 C-17.02622639 1400.56331886 -17.74776527 1400.50163773 -18.49116898 1400.43808746 C-92.61829576 1393.9481353 -165.56535313 1374.38454915 -233 1343 C-234.57056152 1342.27345215 -234.57056152 1342.27345215 -236.17285156 1341.53222656 C-270.49343221 1325.59120601 -303.09307596 1306.82056665 -334 1285 C-335.20970459 1284.14946045 -335.20970459 1284.14946045 -336.44384766 1283.28173828 C-346.35257538 1276.29437334 -355.9725889 1269.01678863 -365.35839844 1261.34179688 C-366.8619408 1260.11284554 -368.37205448 1258.89194517 -369.8828125 1257.671875 C-381.40616298 1248.33224983 -392.55430584 1238.6207223 -403.39111328 1228.49560547 C-405.00089019 1226.99917249 -406.62140976 1225.5153805 -408.24609375 1224.03515625 C-417.93078396 1215.20000027 -427.5808318 1206.22092221 -436.0703125 1196.2109375 C-438.21102631 1193.75821682 -440.42823777 1191.38940142 -442.65698242 1189.0168457 C-447.92941449 1183.40275824 -453.00955269 1177.71754737 -457.828125 1171.703125 C-460.15553214 1168.80642402 -462.54263314 1165.96611535 -464.9375 1163.125 C-476.38324828 1149.39010206 -487.18973819 1134.95235557 -497 1120 C-501.71765052 1120.55713206 -505.21864072 1122.68729365 -509.1875 1125.125 C-510.71274102 1126.04169805 -512.23883949 1126.9569704 -513.765625 1127.87109375 C-515.01762695 1128.62302002 -515.01762695 1128.62302002 -516.29492188 1129.39013672 C-521.31161026 1132.37570019 -526.37714446 1135.27678621 -531.4375 1138.1875 C-533.68622759 1139.48302141 -535.93492511 1140.77859502 -538.18359375 1142.07421875 C-539.31265137 1142.72438965 -540.44170898 1143.37456055 -541.60498047 1144.04443359 C-545.99630963 1146.57388466 -550.38593133 1149.10628706 -554.77514648 1151.6394043 C-556.91616281 1152.8746746 -559.05759834 1154.10921861 -561.19946289 1155.34301758 C-566.28629904 1158.27412002 -571.36907872 1161.21169173 -576.43914795 1164.17169189 C-578.8381957 1165.57178169 -581.2393241 1166.96828095 -583.640625 1168.36450195 C-585.33798226 1169.35343237 -587.03230902 1170.34755838 -588.7265625 1171.34179688 C-590.26570312 1172.23608398 -590.26570312 1172.23608398 -591.8359375 1173.1484375 C-592.73876465 1173.67614746 -593.6415918 1174.20385742 -594.57177734 1174.74755859 C-596.75152454 1175.87184003 -598.60402014 1176.54033458 -601 1177 C-607.43409611 1166.13016234 -613.79065925 1155.2168893 -620.08227539 1144.26391602 C-623.1117235 1138.99199398 -626.15147515 1133.72826127 -629.2459259 1128.49427795 C-630.66213893 1126.09760517 -632.07101004 1123.69665543 -633.47940063 1121.29537964 C-634.48461154 1119.58862813 -635.50040907 1117.88812604 -636.51635742 1116.18774414 C-637.11939697 1115.15770264 -637.72243652 1114.12766113 -638.34375 1113.06640625 C-638.88193359 1112.15834229 -639.42011719 1111.25027832 -639.97460938 1110.31469727 C-641 1108 -641 1108 -640 1105 C-637.86132812 1103.53295898 -637.86132812 1103.53295898 -635.03125 1101.99609375 C-633.99427979 1101.42576416 -632.95730957 1100.85543457 -631.88891602 1100.26782227 C-630.21140259 1099.36181274 -630.21140259 1099.36181274 -628.5 1098.4375 C-626.18543129 1097.16545643 -623.87162963 1095.89201618 -621.55859375 1094.6171875 C-620.42663574 1093.99553711 -619.29467773 1093.37388672 -618.12841797 1092.73339844 C-614.23288683 1090.5749568 -610.38850119 1088.3413034 -606.5625 1086.0625 C-599.59296847 1081.92571248 -592.58495036 1077.8588183 -585.5625 1073.8125 C-583.92450439 1072.8685437 -583.92450439 1072.8685437 -582.25341797 1071.90551758 C-579.4215363 1070.27402237 -576.58941276 1068.642948 -573.75720215 1067.01202393 C-568.97235217 1064.25628938 -564.18859829 1061.49865379 -559.40524292 1058.74032593 C-557.72489647 1057.77156009 -556.04421471 1056.80337594 -554.36352539 1055.83520508 C-553.3399292 1055.24505615 -552.31633301 1054.65490723 -551.26171875 1054.046875 C-550.36412842 1053.52963867 -549.46653809 1053.01240234 -548.54174805 1052.47949219 C-546.01421255 1051.0082728 -543.5042345 1049.51048171 -541 1048 C-542.656139 1042.36542652 -545.2242393 1037.30872813 -547.8125 1032.0625 C-581.60508681 962.21621721 -602.0594916 885.49404844 -608.6171875 808.21875 C-608.68186848 807.45742767 -608.74654945 806.69610535 -608.81319046 805.91171265 C-610.17481814 789.48790321 -610.46434886 773.11864181 -610.39111328 756.64550781 C-610.37402287 752.77432518 -610.3842256 748.90376209 -610.40143585 745.0326004 C-610.46332985 728.55434007 -610.01250781 712.20475748 -608.6171875 695.78125 C-608.55573925 695.05714935 -608.494291 694.33304871 -608.43098068 693.58700562 C-601.99309403 619.4385628 -582.38979148 546.44591085 -551 479 C-550.51563477 477.95295898 -550.03126953 476.90591797 -549.53222656 475.82714844 C-533.59120601 441.50656779 -514.82056665 408.90692404 -493 378 C-492.43297363 377.19353027 -491.86594727 376.38706055 -491.28173828 375.55615234 C-484.29437334 365.64742462 -477.01678863 356.0274111 -469.34179688 346.64160156 C-468.11284554 345.1380592 -466.89194517 343.62794552 -465.671875 342.1171875 C-456.33224983 330.59383702 -446.6207223 319.44569416 -436.49560547 308.60888672 C-434.99917249 306.99910981 -433.5153805 305.37859024 -432.03515625 303.75390625 C-423.20000027 294.06921604 -414.22092221 284.4191682 -404.2109375 275.9296875 C-401.75821682 273.78897369 -399.38940142 271.57176223 -397.0168457 269.34301758 C-391.40275824 264.07058551 -385.71754737 258.99044731 -379.703125 254.171875 C-376.80642402 251.84446786 -373.96611535 249.45736686 -371.125 247.0625 C-364.88366949 241.86139125 -358.50758949 236.86144924 -352 232 C-351.37480469 231.53287598 -350.74960937 231.06575195 -350.10546875 230.58447266 C-329.89661025 215.57232012 -308.83375024 201.53522936 -287 189 C-286.26587891 188.57847656 -285.53175781 188.15695312 -284.77539062 187.72265625 C-279.55514468 184.7436359 -274.29074982 181.85166807 -269 179 C-268.15163574 178.54157715 -267.30327148 178.0831543 -266.42919922 177.61083984 C-195.15382139 139.28167852 -116.85255113 115.09713652 0 103 C0 69.01 0 35.02 0 0 Z M-197 277 C-197.6997998 277.34788574 -198.39959961 277.69577148 -199.12060547 278.05419922 C-219.45749391 288.26122044 -239.34723922 299.95939372 -258 313 C-258.67675781 313.46857422 -259.35351562 313.93714844 -260.05078125 314.41992188 C-273.48955243 323.73020569 -286.43365215 333.53387742 -299 344 C-299.50499023 344.41862305 -300.00998047 344.83724609 -300.53027344 345.26855469 C-313.17515614 355.7657527 -325.10814697 366.93347563 -336.70458984 378.57421875 C-338.39175958 380.26681347 -340.08430196 381.95390597 -341.77734375 383.640625 C-347.39977091 389.25930462 -352.85570199 394.93473652 -358 401 C-359.02096365 402.15713536 -360.04438594 403.31210627 -361.0703125 404.46484375 C-381.32164539 427.41175775 -399.3386964 452.65893658 -414.84375 479.0390625 C-416.04313844 481.07316047 -417.25495072 483.09947246 -418.46875 485.125 C-449.60097675 537.23514983 -470.54306234 595.46165972 -482 655 C-482.1748291 655.90234375 -482.3496582 656.8046875 -482.52978516 657.734375 C-483.92223471 665.12597225 -485.01822052 672.54344697 -486 680 C-486.13628815 681.02528809 -486.13628815 681.02528809 -486.27532959 682.07128906 C-493.70579997 738.62250457 -492.37539136 797.06071103 -481 853 C-480.77586426 854.11262207 -480.55172852 855.22524414 -480.32080078 856.37158203 C-472.60843502 894.07345754 -461.56946647 931.39420398 -445.25634766 966.30957031 C-444.02055329 968.95598577 -442.81040367 971.61285295 -441.60546875 974.2734375 C-440.88414101 975.84956701 -440.16157097 977.42512884 -439.4375 979 C-439.11491211 979.70721191 -438.79232422 980.41442383 -438.45996094 981.14306641 C-436.95413843 984.71733822 -436.95413843 984.71733822 -434 987 C-431.38005028 985.72736409 -428.89528563 984.38857354 -426.375 982.9375 C-425.18269775 982.26291748 -425.18269775 982.26291748 -423.96630859 981.57470703 C-416.47001372 977.31515433 -409.0301903 972.95621604 -401.59130859 968.59741211 C-393.75823511 964.01041634 -385.88721166 959.49289861 -378 955 C-368.27856294 949.46048161 -358.59104683 943.86624806 -348.93310547 938.21655273 C-338.40915375 932.06233258 -327.84619863 925.97630004 -317.28222656 919.89111328 C-311.85340056 916.76319851 -306.42682059 913.63139233 -301 910.5 C-298.84896371 909.25910526 -296.69792203 908.01821986 -294.546875 906.77734375 C-290.63670629 904.52152246 -286.72684735 902.26516622 -282.81741333 900.0080719 C-259.33215937 886.44902888 -259.33215937 886.44902888 -248 880 C-248.9459156 875.65438398 -251.01420309 872.08935053 -253.1875 868.25 C-253.62819824 867.46415527 -254.06889648 866.67831055 -254.52294922 865.86865234 C-258.72817641 858.4063645 -263.05351083 851.01424137 -267.38330078 843.6237793 C-272.15960019 835.46485899 -276.87400517 827.27205907 -281.5625 819.0625 C-281.89993225 818.47212952 -282.2373645 817.88175903 -282.58502197 817.27349854 C-286.43306717 810.53924285 -290.25510351 803.79222499 -294 797 C-286.23281326 795.99018157 -278.51288518 795.71733065 -270.6875 795.5 C-268.01033874 795.41910589 -265.33328851 795.33485028 -262.65625 795.25 C-260.70138672 795.188125 -260.70138672 795.188125 -258.70703125 795.125 C-253.69838745 794.95611001 -248.69293378 794.74547423 -243.6875 794.5 C-242.92590576 794.46455078 -242.16431152 794.42910156 -241.37963867 794.39257812 C-237.85508299 794.21262097 -234.37695963 793.93870971 -230.875 793.5 C-224.37775045 792.74361006 -217.84599425 792.67582492 -211.3125 792.5 C-208.52987858 792.41892808 -205.74735669 792.33470532 -202.96484375 792.25 C-202.27847839 792.22933472 -201.59211304 792.20866943 -200.88494873 792.18737793 C-192.45688711 791.92938892 -184.03640337 791.53730527 -175.61474609 791.125 C-172.84371763 790.9925288 -170.07235919 790.87040115 -167.30078125 790.75 C-165.42968675 790.66668358 -163.55859297 790.58335079 -161.6875 790.5 C-160.84558105 790.46455078 -160.00366211 790.42910156 -159.13623047 790.39257812 C-155.29883773 790.21727748 -151.50840134 789.9662954 -147.6953125 789.49609375 C-141.87393967 788.81211879 -136.04266267 788.71868017 -130.1875 788.5625 C-116.78597955 788.15970341 -103.39375561 787.60705339 -90 787 C-89.05973969 786.95811554 -88.11947937 786.91623108 -87.15072632 786.87307739 C-77.48450397 786.44144311 -67.83672731 785.94699357 -58.1875 785.21875 C-52.79640929 784.84877319 -47.40030543 784.6766774 -42 784.5 C-39.65492603 784.41728481 -37.30987415 784.33394134 -34.96484375 784.25 C-33.22436768 784.188125 -33.22436768 784.188125 -31.44873047 784.125 C-26.15257817 783.93303979 -20.85735033 783.72493295 -15.5625 783.5 C-14.65177734 783.46455078 -13.74105469 783.42910156 -12.80273438 783.39257812 C-11.54106445 783.3374707 -11.54106445 783.3374707 -10.25390625 783.28125 C-9.52502197 783.25095703 -8.7961377 783.22066406 -8.04516602 783.18945312 C-5.94634168 782.99502938 -4.02807902 782.56419599 -2 782 C-4.87697315 787.38477717 -7.95196223 792.53551455 -11.375 797.58984375 C-13.23842718 800.35362878 -15.0649336 803.13846588 -16.875 805.9375 C-17.47054688 806.85402344 -18.06609375 807.77054688 -18.6796875 808.71484375 C-20.1667592 810.84876173 -20.1667592 810.84876173 -20 813 C-20.66 813 -21.32 813 -22 813 C-22.38671875 813.81984375 -22.7734375 814.6396875 -23.171875 815.484375 C-23.69265625 816.56203125 -24.2134375 817.6396875 -24.75 818.75 C-25.26046875 819.81734375 -25.7709375 820.8846875 -26.296875 821.984375 C-27.93531659 824.88546883 -29.62763327 826.70671216 -32 829 C-33.26784124 832.13350717 -33.26784124 832.13350717 -34 835 C-34.66 835 -35.32 835 -36 835 C-36.38671875 835.81984375 -36.7734375 836.6396875 -37.171875 837.484375 C-37.69265625 838.56203125 -38.2134375 839.6396875 -38.75 840.75 C-39.26046875 841.81734375 -39.7709375 842.8846875 -40.296875 843.984375 C-41.94878841 846.90932259 -43.60039481 848.69376467 -46 851 C-47.17265188 852.67598191 -48.29590644 854.38730473 -49.375 856.125 C-49.97183594 857.08535156 -50.56867188 858.04570313 -51.18359375 859.03515625 C-51.78300781 860.01355469 -52.38242188 860.99195313 -53 862 C-53.58910156 862.94746094 -54.17820312 863.89492187 -54.78515625 864.87109375 C-57.78944511 869.1450525 -57.78944511 869.1450525 -59 874 C-59.66 874.33 -60.32 874.66 -61 875 C-61.95121567 876.35887953 -62.8939666 877.72460954 -63.7890625 879.12109375 C-64.67920677 880.50225309 -65.59446459 881.86730859 -66.5234375 883.22265625 C-67.05195312 883.99480469 -67.58046875 884.76695312 -68.125 885.5625 C-68.62257813 886.28566406 -69.12015625 887.00882813 -69.6328125 887.75390625 C-71.08541861 889.99913199 -71.08541861 889.99913199 -72.0546875 892.65234375 C-73 895 -73 895 -75 897 C-75.33 897.99 -75.66 898.98 -76 900 C-76.763125 900.7425 -77.52625 901.485 -78.3125 902.25 C-81.36608563 905.37459925 -85 909.40338356 -85 914 C-85.66 914.33 -86.32 914.66 -87 915 C-88.34512114 916.80879483 -88.34512114 916.80879483 -89.625 918.9375 C-90.07101562 919.64777344 -90.51703125 920.35804688 -90.9765625 921.08984375 C-92.15742381 922.93264213 -92.15742381 922.93264213 -92 925 C-92.66 925 -93.32 925 -94 925 C-95.36150925 926.80431477 -95.36150925 926.80431477 -96.6875 929.1875 C-97.21472656 930.09113281 -97.74195313 930.99476563 -98.28515625 931.92578125 C-100.71133952 936.27522598 -103.0150016 940.68650546 -105.2890625 945.1171875 C-106.94247391 947.90307249 -108.69818687 949.75597298 -111 952 C-112.26784124 955.13350717 -112.26784124 955.13350717 -113 958 C-113.66 958 -114.32 958 -115 958 C-115.2475 958.7425 -115.495 959.485 -115.75 960.25 C-117.09502612 963.20905747 -118.72793537 964.72793537 -121 967 C-121 967.99 -121 968.98 -121 970 C-122.66666667 971.66666667 -124.33333333 973.33333333 -126 975 C-128.94029366 979.16868079 -128.94029366 979.16868079 -130 984 C-130.66 984 -131.32 984 -132 984 C-132.83848804 985.45537568 -133.67063934 986.91440373 -134.5 988.375 C-135.19609375 989.59316406 -135.19609375 989.59316406 -135.90625 990.8359375 C-137.15035859 992.89336874 -137.15035859 992.89336874 -137 995 C-137.66 995 -138.32 995 -139 995 C-140.36150925 996.80431477 -140.36150925 996.80431477 -141.6875 999.1875 C-142.21214844 1000.08855469 -142.73679687 1000.98960937 -143.27734375 1001.91796875 C-145.75173246 1006.34493631 -148.13198937 1010.81965537 -150.484375 1015.3125 C-152 1018 -152 1018 -154 1020 C-154.33 1020.99 -154.66 1021.98 -155 1023 C-156.33333333 1024.33333333 -157.66666667 1025.66666667 -159 1027 C-159 1027.66 -159 1028.32 -159 1029 C-161.98885268 1026.22262654 -164.01050908 1023.56071009 -165.9609375 1019.984375 C-166.50741943 1018.9931665 -167.05390137 1018.00195801 -167.61694336 1016.98071289 C-168.4871814 1015.38151001 -168.4871814 1015.38151001 -169.375 1013.75 C-170.63231524 1011.47166234 -171.89147654 1009.19434262 -173.15234375 1006.91796875 C-173.47278152 1006.33844955 -173.7932193 1005.75893036 -174.12336731 1005.16184998 C-177.30973996 999.41186174 -180.61055922 993.7319561 -183.9375 988.0625 C-189.1171417 979.22751116 -194.26160305 970.37343178 -199.375 961.5 C-199.71022675 960.91840118 -200.04545349 960.33680237 -200.39083862 959.73757935 C-202.26135951 956.49218024 -204.13107518 953.24631846 -206 950 C-213.15904009 953.45752396 -220.03573714 957.26354533 -226.875 961.3125 C-235.88059117 966.60625089 -244.92234397 971.83125681 -254 977 C-263.72171854 982.53901815 -273.40895986 988.13375586 -283.06689453 993.78344727 C-293.59084625 999.93766742 -304.15380137 1006.02369996 -314.71777344 1012.10888672 C-321.22729589 1015.85946399 -327.7339478 1019.61501989 -334.24072266 1023.37036133 C-339.70534663 1026.52385162 -345.17147902 1029.6746704 -350.640625 1032.8203125 C-356.04077592 1035.92676978 -361.43435874 1039.04440381 -366.82519531 1042.16699219 C-370.05229482 1044.03019298 -373.28764397 1045.8785108 -376.5234375 1047.7265625 C-378.55762014 1048.90047266 -380.59148876 1050.07492718 -382.625 1051.25 C-383.57407227 1051.78705566 -384.52314453 1052.32411133 -385.50097656 1052.87744141 C-386.35916992 1053.37679199 -387.21736328 1053.87614258 -388.1015625 1054.390625 C-389.23585693 1055.0407959 -389.23585693 1055.0407959 -390.39306641 1055.70410156 C-390.92335449 1056.13174805 -391.45364258 1056.55939453 -392 1057 C-392 1060.51025471 -391.36576283 1061.23509989 -389.32421875 1063.9921875 C-388.74889404 1064.77335937 -388.17356934 1065.55453125 -387.58081055 1066.359375 C-386.95601807 1067.18953125 -386.33122559 1068.0196875 -385.6875 1068.875 C-385.05175049 1069.72835937 -384.41600098 1070.58171875 -383.76098633 1071.4609375 C-379.20499744 1077.52569454 -374.46563099 1083.38453484 -369.4921875 1089.109375 C-367.19469174 1091.77418199 -364.99903788 1094.49413717 -362.8125 1097.25 C-352.40702128 1109.96983213 -340.59258763 1121.49967215 -329 1133.125 C-328.46375 1133.66392883 -327.9275 1134.20285767 -327.375 1134.75811768 C-321.43132087 1140.72433144 -315.43708278 1146.56080162 -309 1152 C-307.99023689 1152.8768579 -306.98108339 1153.7544185 -305.97265625 1154.6328125 C-297.2435584 1162.10820099 -288.19676053 1169.11096884 -279 1176 C-278.02063477 1176.73549072 -278.02063477 1176.73549072 -277.02148438 1177.48583984 C-256.46632349 1192.88121443 -234.73793795 1206.65240623 -212.13671875 1218.84570312 C-210.04413092 1219.97615962 -207.95941632 1221.1201886 -205.875 1222.265625 C-194.5217103 1228.44889659 -182.82520627 1233.78804523 -171 1239 C-170.21963379 1239.3491748 -169.43926758 1239.69834961 -168.63525391 1240.05810547 C-125.80534816 1259.18176572 -78.49347873 1271.81036073 -32 1278 C-31.28098511 1278.09710266 -30.56197021 1278.19420532 -29.82116699 1278.29425049 C62.81341281 1290.65642697 157.92554329 1277.69937389 277 1227 C277.6997998 1226.65211426 278.39959961 1226.30422852 279.12060547 1225.94580078 C299.45749391 1215.73877956 319.34723922 1204.04060628 338 1191 C338.67675781 1190.53142578 339.35351562 1190.06285156 340.05078125 1189.58007812 C353.48955243 1180.26979431 366.43365215 1170.46612258 379 1160 C379.50499023 1159.58137695 380.00998047 1159.16275391 380.53027344 1158.73144531 C393.17515614 1148.2342473 405.10814697 1137.06652437 416.70458984 1125.42578125 C418.39175958 1123.73318653 420.08430196 1122.04609403 421.77734375 1120.359375 C427.39977091 1114.74069538 432.85570199 1109.06526348 438 1103 C439.02096365 1101.84286464 440.04438594 1100.68789373 441.0703125 1099.53515625 C448.58461542 1091.01975819 455.62137201 1082.22514696 462.41259766 1073.12402344 C464.01954037 1070.97385401 465.6400804 1068.83441199 467.26171875 1066.6953125 C468.27947075 1065.33916035 469.29643297 1063.98241503 470.3125 1062.625 C470.78703613 1062.00044922 471.26157227 1061.37589844 471.75048828 1060.73242188 C474.40918227 1057.25108941 474.40918227 1057.25108941 475 1053 C474.33806641 1052.6189209 473.67613281 1052.2378418 472.99414062 1051.84521484 C469.82902985 1050.02249878 466.66435373 1048.19902992 463.5 1046.375 C462.91377869 1046.03709442 462.32755737 1045.69918884 461.72357178 1045.3510437 C453.50853204 1040.6144932 445.3095522 1035.85159901 437.125 1031.0625 C428.44744285 1025.98713808 419.7339433 1020.97741175 411 1016 C401.27884383 1010.4599827 391.59105342 1004.86625191 381.93310547 999.21655273 C371.40915375 993.06233258 360.84619863 986.97630004 350.28222656 980.89111328 C344.85340061 977.76319853 339.42678636 974.63145157 334 971.5 C327.86288313 967.95879797 321.72562239 964.4178489 315.5866394 960.87988281 C313.19573403 959.50193062 310.80501328 958.12365828 308.41430664 956.74536133 C306.73016037 955.77459018 305.04574769 954.80428126 303.36132812 953.83398438 C302.33845703 953.24423828 301.31558594 952.65449219 300.26171875 952.046875 C299.36412842 951.52963867 298.46653809 951.01240234 297.54174805 950.47949219 C295.7760795 949.45173775 294.02845695 948.39259918 292.29614258 947.30957031 C290.15100594 945.83485913 290.15100594 945.83485913 288 946 C287.62415771 946.65145996 287.24831543 947.30291992 286.86108398 947.97412109 C280.97119141 958.18326823 275.08129883 968.39241536 269.19140625 978.6015625 C268.58014893 979.66125244 267.9688916 980.72094238 267.33911133 981.81274414 C266.11170371 983.93989222 264.88367492 986.06668199 263.6550293 988.19311523 C260.71846857 993.27721202 257.78835739 998.36472462 254.87988281 1003.4649353 C253.50413209 1005.87653083 252.12488653 1008.28611876 250.74536133 1010.69555664 C249.77148182 1012.3999055 248.80267435 1014.10714938 247.83398438 1015.81445312 C246.94936523 1017.35842773 246.94936523 1017.35842773 246.046875 1018.93359375 C245.52963867 1019.84165771 245.01240234 1020.74972168 244.47949219 1021.68530273 C243.14476761 1023.77350796 241.83066332 1025.34578204 240 1027 C239.46826172 1026.15695312 239.46826172 1026.15695312 238.92578125 1025.296875 C234.29962032 1017.99358947 229.5857668 1010.7498372 224.85546875 1003.51367188 C220.91896349 997.47191264 217.13705798 991.35995322 213.48828125 985.140625 C212.99714844 984.43421875 212.50601563 983.7278125 212 983 C211.34 983 210.68 983 210 983 C209.731875 982.113125 209.46375 981.22625 209.1875 980.3125 C208.0749365 977.2090334 206.89804222 974.68889315 205 972 C204.34 972 203.68 972 203 972 C202.731875 971.29875 202.46375 970.5975 202.1875 969.875 C200.9318551 966.8350176 199.49764877 963.9272226 198 961 C197.34 961 196.68 961 196 961 C195.65195313 960.00033203 195.65195313 960.00033203 195.296875 958.98046875 C193.63848202 955.169162 191.48786569 951.80647937 189.25 948.3125 C188.34803038 946.89251609 187.44698756 945.47194305 186.546875 944.05078125 C186.11052734 943.36193848 185.67417969 942.6730957 185.22460938 941.96337891 C183.1090841 938.57162168 181.12450275 935.1037723 179.15625 931.625 C178.58390625 930.820625 178.58390625 930.820625 178 930 C177.34 930 176.68 930 176 930 C175.79375 929.195625 175.5875 928.39125 175.375 927.5625 C173.90169031 923.74528853 172.01216738 920.82557771 169.69921875 917.4765625 C167.94312387 914.91710468 166.27888194 912.31403104 164.625 909.6875 C161.47866338 904.7144823 158.21192722 899.83058121 154.92578125 894.94921875 C152.54465082 891.30265999 150.36244411 887.56009623 148.2265625 883.765625 C147.61941406 882.89164063 147.61941406 882.89164063 147 882 C146.34 882 145.68 882 145 882 C144.731875 881.113125 144.46375 880.22625 144.1875 879.3125 C143.0749365 876.2090334 141.89804222 873.68889315 140 871 C139.34 871 138.68 871 138 871 C137.79375 870.195625 137.5875 869.39125 137.375 868.5625 C135.9231189 864.80080805 134.09746062 861.95646466 131.8203125 858.65625 C129.75539773 855.64306965 127.77922575 852.57758163 125.8125 849.5 C122.34855703 844.0942284 118.8666709 838.70040114 115.375 833.3125 C110.64153456 826.0043224 105.94917991 818.67122979 101.30078125 811.30859375 C95.43698523 802.04511375 89.44965405 792.86827432 83 784 C83.33 783.34 83.66 782.68 84 782 C85.22589844 782.06058594 86.45179688 782.12117188 87.71484375 782.18359375 C89.45571609 782.26849765 91.19660277 782.3531079 92.9375 782.4375 C93.86739746 782.48261719 94.79729492 782.52773437 95.75537109 782.57421875 C101.02755008 782.82539949 106.29979145 783.05509192 111.57421875 783.25390625 C113.21112671 783.3159021 113.21112671 783.3159021 114.88110352 783.37915039 C116.98957159 783.45770023 119.09813119 783.53384335 121.20678711 783.60717773 C125.97824461 783.78531319 130.715737 784.03879119 135.46875 784.5 C141.43194277 785.07574184 147.38899803 785.30069257 153.375 785.5 C155.69142986 785.58398675 158.00783601 785.66862971 160.32421875 785.75390625 C162.02843994 785.81602295 162.02843994 785.81602295 163.76708984 785.87939453 C175.48613925 786.31658003 187.18419862 786.9345307 198.88427734 787.73291016 C213.77585842 788.74542661 228.63949692 789.37188998 243.55859375 789.78515625 C256.8000732 790.15245793 270.01793499 790.74601881 283.2265625 791.75 C297.38246951 792.68786547 311.58305631 793.06720193 325.75805664 793.62280273 C333.6296121 793.93494529 341.49811794 794.29583733 349.36572266 794.6953125 C352.56062786 794.85444817 355.73408647 795.00035408 358.93359375 794.99609375 C361 795 361 795 363.3125 795.5 C366.92168794 796.17147683 370.33024133 796.0621993 374 796 C366.13514486 812.03613321 356.64914975 827.40824125 347.62109375 842.80859375 C343.59036995 849.68729363 339.60565292 856.59225305 335.625 863.5 C335.28977325 864.08159882 334.95454651 864.66319763 334.60916138 865.26242065 C332.73864049 868.50781976 330.86892482 871.75368154 329 875 C332.40833646 877.8455204 335.83466984 880.18211602 339.69921875 882.36328125 C340.81248535 882.99500244 341.92575195 883.62672363 343.07275391 884.27758789 C343.95510712 884.77429489 343.95510712 884.77429489 344.85528564 885.28103638 C347.36686315 886.69495436 349.87292516 888.1185265 352.37945557 889.54136658 C353.67616536 890.27727543 354.97316501 891.01267376 356.27044678 891.74757385 C362.57436268 895.31957855 368.85209811 898.93633135 375.125 902.5625 C376.18807373 903.17649658 377.25114746 903.79049316 378.34643555 904.4230957 C380.4918156 905.66223343 382.63707971 906.9015719 384.78222656 908.14111328 C389.10247643 910.63689344 393.42422987 913.13006297 397.74609375 915.62304688 C400.99496496 917.49709563 404.24357632 919.37159428 407.4921875 921.24609375 C411.85065388 923.76069436 416.21012191 926.27354661 420.5703125 928.78515625 C431.02206199 934.80747329 441.46299548 940.84669337 451.875 946.9375 C461.13629136 952.35411968 470.44047244 957.69266901 479.76226807 963.00411987 C491.89191145 969.9169824 503.95632651 976.93830139 516 984 C543.07781249 949.89260566 553.96352246 890.76321357 562 849 C562.1748291 848.09765625 562.3496582 847.1953125 562.52978516 846.265625 C563.92223471 838.87402775 565.01822052 831.45655303 566 824 C566.09085876 823.31647461 566.18171753 822.63294922 566.27532959 821.92871094 C573.70579997 765.37749543 572.37539136 706.93928897 561 651 C560.77586426 649.88737793 560.55172852 648.77475586 560.32080078 647.62841797 C552.60318157 609.90086098 541.50772595 572.71759361 525.26855469 537.75341797 C524.03621825 535.07861228 522.84322867 532.390018 521.6640625 529.69140625 C514.44372629 513.20261232 506.02443373 497.55302515 496.875 482.0625 C496.21814209 480.94931396 495.56128418 479.83612793 494.88452148 478.68920898 C488.76325292 468.42134861 482.15555632 458.50487159 475.25 448.75 C474.74686279 448.0389209 474.24372559 447.3278418 473.7253418 446.59521484 C465.54154295 435.08480275 457.0773061 423.82354696 448 413 C447.18402344 412.01 446.36804687 411.02 445.52734375 410 C434.13928362 396.25623097 421.65632707 383.56674821 409.0625 370.9375 C408.2551944 370.12617615 408.2551944 370.12617615 407.43157959 369.29846191 C401.46911101 363.31347629 395.45803622 357.45562754 389 352 C387.99022658 351.12315397 386.98107269 350.24559378 385.97265625 349.3671875 C377.2435584 341.89179901 368.19676053 334.88903116 359 328 C358.34708984 327.50967285 357.69417969 327.0193457 357.02148438 326.51416016 C336.46632349 311.11878557 314.73793795 297.34759377 292.13671875 285.15429688 C290.04413092 284.02384038 287.95941632 282.8798114 285.875 281.734375 C274.5217103 275.55110341 262.82520627 270.21195477 251 265 C249.82945068 264.47623779 249.82945068 264.47623779 248.63525391 263.94189453 C195.20886195 240.08687663 137.92040385 228.43003786 80 223 C80 299.56 80 376.12 80 455 C127.025 455.495 127.025 455.495 175 456 C150.63105973 503.77413714 150.63105973 503.77413714 139.625 525 C135.43965315 533.07372895 131.2820491 541.1616738 127.125 549.25 C125.59768962 552.22137132 124.07033915 555.19272203 122.54296875 558.1640625 C122.16480515 558.89976471 121.78664154 559.63546692 121.39701843 560.39346313 C117.4149519 568.13959617 113.42677807 575.88257905 109.4375 583.625 C109.0884964 584.3023822 108.7394928 584.9797644 108.37991333 585.67767334 C105.56945233 591.13247731 102.7586764 596.58711898 99.94787598 602.04174805 C97.48593244 606.81942062 95.02411904 611.59716023 92.5625 616.375 C92.21339569 617.05258362 91.86429138 617.73016724 91.50460815 618.42828369 C86.37572972 628.38349892 81.25180786 638.34125457 76.13095093 648.30059814 C75.0064695 650.48741854 73.88180807 652.67414626 72.75708008 654.86083984 C72.00992723 656.31347597 71.26277554 657.76611269 70.515625 659.21875 C69.96112923 660.29680405 69.96112923 660.29680405 69.39543152 661.39663696 C67.08601465 665.88704958 64.77819332 670.37827866 62.47131348 674.86999512 C60.93287296 677.86484518 59.39330949 680.85911706 57.85351562 683.85327148 C57.13102 685.25878122 56.40899648 686.66453375 55.6875 688.07055664 C54.68356048 690.02686018 53.6782233 691.98243457 52.671875 693.9375 C52.35899536 694.54573608 52.04611572 695.15397217 51.72375488 695.78063965 C49.2586959 700.55036775 46.67976858 705.25078709 44.04003906 709.92578125 C42.8505922 711.9112474 42.8505922 711.9112474 43 714 C42.34 714 41.68 714 41 714 C40.73896484 713.31566895 40.47792969 712.63133789 40.20898438 711.92626953 C38.83506846 708.60079373 37.26851292 705.39362713 35.65625 702.1796875 C35.32765991 701.5215506 34.99906982 700.8634137 34.66052246 700.18533325 C33.96216531 698.78793977 33.26280185 697.39104881 32.5625 695.99462891 C31.52830609 693.93146909 30.49826834 691.86627727 29.46875 689.80078125 C25.38288476 681.62490812 21.1839894 673.51542614 16.91082764 665.43600464 C12.25996449 656.62819589 7.73820486 647.75537063 3.21737671 638.88031006 C0.6909717 633.921236 -1.83982656 628.96440614 -4.37109375 624.0078125 C-4.86534348 623.03997833 -5.3595932 622.07214417 -5.86882019 621.07498169 C-10.18933382 612.61969112 -14.5502436 604.18623045 -18.93139648 595.76220703 C-23.58427546 586.81302355 -28.20215334 577.84614289 -32.8125 568.875 C-33.19257202 568.13548096 -33.57264404 567.39596191 -33.9642334 566.6340332 C-35.50197093 563.64198738 -37.03969614 560.64993522 -38.57733154 557.65783691 C-42.5674029 549.89432285 -46.5642981 542.13432926 -50.5625 534.375 C-51.08437393 533.36218964 -51.08437393 533.36218964 -51.61679077 532.32891846 C-53.0208847 529.60400123 -54.42498701 526.87908833 -55.82914734 524.15420532 C-58.32582699 519.30900963 -60.82132335 514.46320561 -63.31640625 509.6171875 C-64.40548724 507.50220723 -65.49459323 505.38723983 -66.58370972 503.27227783 C-67.24812767 501.9819194 -67.9124632 500.69151851 -68.57669067 499.40106201 C-76.02918952 484.92266563 -83.51880175 470.46364995 -91 456 C-45.955 455.505 -45.955 455.505 0 455 C0 378.44 0 301.88 0 223 C-66.18696401 223 -138.63188629 247.93523359 -197 277 Z " fill="#000000" transform="translate(1164,448)"/>
<path d="M0 0 C213.84 0 427.68 0 648 0 C689 181.19354839 689 181.19354839 689 185 C690.22589844 185.38671875 691.45179687 185.7734375 692.71484375 186.171875 C698.80297643 188.20323476 704.66607432 190.7244513 710.5625 193.25 C712.16061523 193.92869141 712.16061523 193.92869141 713.79101562 194.62109375 C717.19797282 196.07164082 720.59911639 197.53527461 724 199 C725.25032196 199.53231631 726.50064757 200.06462404 727.75097656 200.59692383 C738.23265116 205.08829368 748.44025957 210.06288222 758.625 215.1875 C759.45494476 215.60352478 760.28488953 216.01954956 761.13998413 216.44818115 C773.49169552 222.64236151 785.6929234 229.04252616 797.76220703 235.77246094 C800.55467915 237.30426869 803.3843585 238.75524505 806.21972656 240.20556641 C828.34286996 251.58637538 848.99702933 265.80867338 869.71525574 279.52693176 C873.44298338 281.99004552 877.19847082 284.40182378 880.98046875 286.78125 C885.261621 289.49210613 889.35396837 292.35674241 893.375 295.4375 C894.03218018 295.93556152 894.68936035 296.43362305 895.36645508 296.94677734 C897.58087714 298.62696592 899.79037922 300.31350335 902 302 C903.7458651 303.32712377 905.49196877 304.65393373 907.23828125 305.98046875 C915.97062311 312.61899484 924.68593872 319.27916495 933.3671875 325.984375 C935.53730964 327.64577415 937.7282556 329.26659612 939.9375 330.875 C945.5597876 335.07407254 950.79936744 339.75601257 956.09716797 344.3515625 C957.99951123 345.99957657 959.90728529 347.64109494 961.81640625 349.28125 C968.77613445 355.27103399 975.62738368 361.35406694 982.37109375 367.5859375 C984.55486315 369.59124135 986.75963925 371.5586607 989 373.5 C999.9311238 383.01352151 1010.24487352 393.08651476 1020.47436523 403.34399414 C1022.82227056 405.697293 1025.17551968 408.0451539 1027.52929688 410.39257812 C1029.04719597 411.91113758 1030.56478506 413.43000696 1032.08203125 414.94921875 C1032.77383987 415.63900314 1033.4656485 416.32878754 1034.17842102 417.03947449 C1038.09811823 420.9778507 1041.84475753 425.01587878 1045.46940613 429.2278595 C1047.75475302 431.87386237 1050.12735424 434.43195988 1052.5 437 C1056.15147583 440.96456597 1059.75433962 444.96315192 1063.28125 449.0390625 C1065.19629422 451.22395386 1067.16146272 453.35860609 1069.125 455.5 C1077.73792208 465.05198002 1085.68848438 475.19438993 1093.47680664 485.42382812 C1096.03963493 488.78198105 1098.67649525 492.06268783 1101.375 495.3125 C1110.81427496 506.76615286 1119.45796918 518.86963919 1128 531 C1128.52682373 531.74354736 1129.05364746 532.48709473 1129.59643555 533.25317383 C1133.92905849 539.39584884 1138.09325542 545.63387773 1142.1875 551.9375 C1142.83605957 552.93386475 1143.48461914 553.93022949 1144.15283203 554.95678711 C1148.77039578 562.06652212 1153.33248992 569.20963795 1157.83569336 576.39233398 C1160.10540293 580.01179015 1162.39187479 583.61582244 1164.7421875 587.18359375 C1165.37954834 588.15510376 1165.37954834 588.15510376 1166.02978516 589.14624023 C1167.16562166 590.87181178 1168.30907265 592.59236455 1169.453125 594.3125 C1171 597 1171 597 1171 600 C1171.66 600 1172.32 600 1173 600 C1173.28875 601.134375 1173.5775 602.26875 1173.875 603.4375 C1174.24625 604.613125 1174.6175 605.78875 1175 607 C1175.99 607.495 1175.99 607.495 1177 608 C1178.25442747 610.16892615 1179.42286045 612.33411256 1180.5625 614.5625 C1183.39655682 620.00214466 1186.32400942 625.36678794 1189.375 630.6875 C1193.22968257 637.45694254 1196.7456882 644.3669246 1200.18994141 651.3527832 C1203.10429524 657.25324793 1206.14589414 663.07251165 1209.25 668.875 C1212.9322191 675.80288645 1216.22408296 682.78872245 1219.19433594 690.05615234 C1220.09998225 692.24122991 1221.03572956 694.411873 1221.9765625 696.58203125 C1228.21094999 710.96270378 1234.17640206 725.44837147 1240 740 C1240.41362793 741.03157227 1240.82725586 742.06314453 1241.25341797 743.12597656 C1246.82451588 757.0975087 1251.90506817 771.22209264 1256.8125 785.4375 C1257.08535828 786.22162262 1257.35821655 787.00574524 1257.63934326 787.81362915 C1261.14549596 797.91505411 1264.17064785 808.04682975 1266.8137207 818.40698242 C1267.90785422 822.68898525 1269.09639894 826.93825233 1270.32421875 831.18359375 C1291.29614508 904.09127057 1303.072043 978.96165137 1306.67422485 1054.68840027 C1306.89731233 1059.2870163 1307.2088911 1063.87294523 1307.546875 1068.46484375 C1308.20581024 1078.81344084 1308.1493966 1089.16674172 1308.13037109 1099.53271484 C1308.12505288 1102.96586614 1308.13032372 1106.39888413 1308.13671875 1109.83203125 C1308.14983505 1141.594009 1305.91735112 1173.02428992 1302.39550781 1204.58105469 C1301.99634608 1208.15774096 1301.60313413 1211.73504386 1301.2109375 1215.3125 C1301.01745728 1217.06382233 1301.01745728 1217.06382233 1300.82006836 1218.8505249 C1300.56830212 1221.13397401 1300.3190475 1223.41770167 1300.07250977 1225.70172119 C1299.54510343 1230.50912897 1298.98483845 1235.29011068 1298.19140625 1240.06152344 C1298.01557007 1241.17272049 1298.01557007 1241.17272049 1297.83618164 1242.30636597 C1297.52831018 1244.19364376 1297.18766544 1246.07549952 1296.84375 1247.95654297 C1296.70623678 1251.2096124 1296.70623678 1251.2096124 1299.3046875 1253.77392578 C1300.19414062 1254.50853027 1301.08359375 1255.24313477 1302 1256 C1302.86625 1256.7425 1303.7325 1257.485 1304.625 1258.25 C1305.7476287 1259.16956924 1306.87307429 1260.08570178 1308 1261 C1319.29458459 1270.20995627 1319.29458459 1270.20995627 1324.09765625 1274.390625 C1325.66730628 1275.71854248 1327.26562177 1277.01249741 1328.87109375 1278.296875 C1329.88300781 1279.10640625 1330.89492187 1279.9159375 1331.9375 1280.75 C1332.89527344 1281.50796875 1333.85304688 1282.2659375 1334.83984375 1283.046875 C1335.90912109 1284.01367188 1335.90912109 1284.01367188 1337 1285 C1337 1285.66 1337 1286.32 1337 1287 C1337.598125 1287.103125 1338.19625 1287.20625 1338.8125 1287.3125 C1341.38540553 1288.12112745 1342.12227532 1289.08725947 1344 1291 C1345.65385233 1292.34919532 1347.321702 1293.68133728 1349 1295 C1351.83079581 1297.22419671 1354.45879575 1299.45879575 1357 1302 C1358.65300817 1303.35022944 1360.3210107 1304.68221759 1362 1306 C1363.70907322 1307.35323275 1365.41741095 1308.70739493 1367.125 1310.0625 C1367.97320313 1310.73410156 1368.82140625 1311.40570312 1369.6953125 1312.09765625 C1371.59046979 1313.66196405 1373.26729574 1315.26729574 1375 1317 C1376.73752758 1318.45255092 1378.48902231 1319.88846916 1380.25 1321.3125 C1383.3630047 1323.84283497 1386.4681451 1326.37288302 1389.5 1329 C1393.38781959 1332.36445926 1397.38583815 1335.59199599 1401.37109375 1338.83984375 C1403.45954344 1340.55591013 1405.52107017 1342.29133038 1407.5625 1344.0625 C1411.20189035 1347.21722578 1414.98181532 1350.18909995 1418.765625 1353.16796875 C1420.63596576 1354.70151738 1422.3130111 1356.27400558 1424 1358 C1425.65385233 1359.34919532 1427.321702 1360.68133728 1429 1362 C1429.886875 1362.721875 1430.77375 1363.44375 1431.6875 1364.1875 C1433.85532267 1366.01090035 1433.85532267 1366.01090035 1436 1367 C1435.42958737 1370.79827703 1434.370449 1373.39493832 1432.3125 1376.625 C1430.06545038 1380.23748169 1427.94777355 1383.87526696 1425.9375 1387.625 C1424.21537026 1390.81876789 1422.45320116 1393.94227294 1420.5 1397 C1416.20840207 1403.72811805 1412.48970593 1410.82671559 1409 1418 C1408.34 1418 1407.68 1418 1407 1418 C1406.79375 1418.78375 1406.5875 1419.5675 1406.375 1420.375 C1404.85827145 1424.37364799 1402.84018306 1427.69480232 1400.59765625 1431.3203125 C1398.15077612 1435.42437062 1396.06946938 1439.69623625 1394 1444 C1393.34 1444 1392.68 1444 1392 1444 C1391.79375 1444.78375 1391.5875 1445.5675 1391.375 1446.375 C1389.84788258 1450.40103683 1387.82963205 1453.77233937 1385.57421875 1457.42578125 C1384.1501206 1459.75451742 1382.80952443 1462.10556213 1381.5 1464.5 C1379.75821083 1467.67194833 1377.94079042 1470.78191915 1376.0625 1473.875 C1373.9214971 1477.41039966 1371.89761686 1480.98621897 1369.9375 1484.625 C1368.21537026 1487.81876789 1366.45320116 1490.94227294 1364.5 1494 C1360.20840207 1500.72811805 1356.48970593 1507.82671559 1353 1515 C1352.34 1515 1351.68 1515 1351 1515 C1350.79375 1515.78375 1350.5875 1516.5675 1350.375 1517.375 C1348.85827145 1521.37364799 1346.84018306 1524.69480232 1344.59765625 1528.3203125 C1342.15077612 1532.42437062 1340.06946938 1536.69623625 1338 1541 C1337.34 1541 1336.68 1541 1336 1541 C1335.79375 1541.78375 1335.5875 1542.5675 1335.375 1543.375 C1333.84788258 1547.40103683 1331.82963205 1550.77233937 1329.57421875 1554.42578125 C1328.1501206 1556.75451742 1326.80952443 1559.10556213 1325.5 1561.5 C1323.75821083 1564.67194833 1321.94079042 1567.78191915 1320.0625 1570.875 C1317.9214971 1574.41039966 1315.89761686 1577.98621897 1313.9375 1581.625 C1312.21537026 1584.81876789 1310.45320116 1587.94227294 1308.5 1591 C1304.20840207 1597.72811805 1300.48970593 1604.82671559 1297 1612 C1296.34 1612 1295.68 1612 1295 1612 C1294.79375 1612.78375 1294.5875 1613.5675 1294.375 1614.375 C1292.85827145 1618.37364799 1290.84018306 1621.69480232 1288.59765625 1625.3203125 C1286.15077612 1629.42437062 1284.06946938 1633.69623625 1282 1638 C1281.34 1638 1280.68 1638 1280 1638 C1279.79375 1638.78375 1279.5875 1639.5675 1279.375 1640.375 C1277.84788258 1644.40103683 1275.82963205 1647.77233937 1273.57421875 1651.42578125 C1272.1501206 1653.75451742 1270.80952443 1656.10556213 1269.5 1658.5 C1267.75821083 1661.67194833 1265.94079042 1664.78191915 1264.0625 1667.875 C1261.9214971 1671.41039966 1259.89761686 1674.98621897 1257.9375 1678.625 C1256.21537026 1681.81876789 1254.45320116 1684.94227294 1252.5 1688 C1248.20840207 1694.72811805 1244.48970593 1701.82671559 1241 1709 C1240.34 1709 1239.68 1709 1239 1709 C1238.79375 1709.78375 1238.5875 1710.5675 1238.375 1711.375 C1236.84788258 1715.40103683 1234.82963205 1718.77233937 1232.57421875 1722.42578125 C1231.1501206 1724.75451742 1229.80952443 1727.10556213 1228.5 1729.5 C1226.75821083 1732.67194833 1224.94079042 1735.78191915 1223.0625 1738.875 C1220.9214971 1742.41039966 1218.89761686 1745.98621897 1216.9375 1749.625 C1215.21537026 1752.81876789 1213.45320116 1755.94227294 1211.5 1759 C1207.20840207 1765.72811805 1203.48970593 1772.82671559 1200 1780 C1199.34 1780 1198.68 1780 1198 1780 C1197.79375 1780.78375 1197.5875 1781.5675 1197.375 1782.375 C1195.85827145 1786.37364799 1193.84018306 1789.69480232 1191.59765625 1793.3203125 C1189.15077612 1797.42437062 1187.06946938 1801.69623625 1185 1806 C1184.34 1806 1183.68 1806 1183 1806 C1182.79375 1806.78375 1182.5875 1807.5675 1182.375 1808.375 C1180.84788258 1812.40103683 1178.82963205 1815.77233937 1176.57421875 1819.42578125 C1175.1501206 1821.75451742 1173.80952443 1824.10556213 1172.5 1826.5 C1170.75821083 1829.67194833 1168.94079042 1832.78191915 1167.0625 1835.875 C1164.9214971 1839.41039966 1162.89761686 1842.98621897 1160.9375 1846.625 C1159.21537026 1849.81876789 1157.45320116 1852.94227294 1155.5 1856 C1151.20840207 1862.72811805 1147.48970593 1869.82671559 1144 1877 C1143.34 1877 1142.68 1877 1142 1877 C1141.79375 1877.78375 1141.5875 1878.5675 1141.375 1879.375 C1139.85827145 1883.37364799 1137.84018306 1886.69480232 1135.59765625 1890.3203125 C1133.15077612 1894.42437062 1131.06946938 1898.69623625 1129 1903 C1128.34 1903 1127.68 1903 1127 1903 C1126.79375 1903.78375 1126.5875 1904.5675 1126.375 1905.375 C1124.85141723 1909.39171821 1122.84387438 1912.75429642 1120.5859375 1916.39453125 C1118.64195255 1919.58822081 1116.89931743 1922.87072934 1115.17578125 1926.1875 C1114 1928 1114 1928 1111 1930 C1108.65234375 1929.42578125 1108.65234375 1929.42578125 1105.9375 1928.3125 C1101.39725272 1926.52883143 1096.87305467 1925.01117084 1092.19140625 1923.6484375 C1090.48845013 1923.14453248 1088.80237415 1922.58343449 1087.125 1922 C1084.12039808 1921.03852739 1081.1297417 1920.29605347 1078.0625 1919.5625 C1073.45077687 1918.435064 1069.35490514 1916.90032224 1065 1915 C1062.33257682 1914.22022613 1059.649441 1913.51983662 1056.9609375 1912.81640625 C1052.88419903 1911.69234512 1048.90194464 1910.32726656 1044.8984375 1908.96875 C1041.49280006 1907.83047765 1038.06387744 1906.79640772 1034.62109375 1905.77734375 C1026.30558373 1903.31119398 1018.04864181 1900.69887231 1009.828125 1897.93359375 C1006.44249928 1896.81596316 1003.0360785 1895.78771889 999.6171875 1894.77734375 C994.39860576 1893.22734708 989.20206385 1891.60437483 984 1890 C982.9584375 1889.6803125 981.916875 1889.360625 980.84375 1889.03125 C974.89058451 1887.20404079 968.94297772 1885.36001053 963 1883.5 C960.97613997 1882.86730234 958.95221304 1882.23481961 956.92822266 1881.60253906 C955.11213715 1881.03504108 953.29629488 1880.46676488 951.48046875 1879.8984375 C949.33763567 1879.23245616 947.19190534 1878.57570322 945.04296875 1877.9296875 C942.99285018 1877.30333548 940.95343767 1876.64095066 938.92578125 1875.9453125 C936.25471703 1875.08229843 933.78817399 1874.32607458 931 1874 C928.04952447 1875.54335029 928.04952447 1875.54335029 926 1878 C923.1875 1879.25 923.1875 1879.25 921 1880 C921 1880.66 921 1881.32 921 1882 C919.59345313 1882.98542505 918.17937579 1883.96192444 916.72851562 1884.88085938 C912.85042821 1887.39175665 909.26570087 1890.35232022 905.609375 1893.171875 C903 1895 903 1895 901 1895 C900.67 1895.66 900.34 1896.32 900 1897 C898.00669158 1898.34331654 896.00615134 1899.67594012 894 1901 C893.525625 1901.495 893.05125 1901.99 892.5625 1902.5 C889.81213711 1905.14034838 885.86115847 1908 882 1908 C881.67 1908.99 881.34 1909.98 881 1911 C879.0390625 1912.28125 879.0390625 1912.28125 876.625 1913.5 C873.54965295 1915.06271707 871.38922003 1916.53432493 869 1919 C867.67169884 1919.93375626 866.31595419 1920.82950888 864.9375 1921.6875 C864.24527344 1922.12449219 863.55304688 1922.56148437 862.83984375 1923.01171875 C861 1924 861 1924 859 1924 C858.67 1924.66 858.34 1925.32 858 1926 C856.11750815 1927.26091435 854.19246532 1928.4585914 852.25 1929.625 C851.07142302 1930.33561989 849.89304357 1931.04656747 848.71484375 1931.7578125 C848.10495605 1932.12422852 847.49506836 1932.49064453 846.86669922 1932.86816406 C845.00546009 1933.99668938 843.15921675 1935.14634947 841.31640625 1936.3046875 C840.72891602 1936.67255371 840.14142578 1937.04041992 839.53613281 1937.41943359 C837.88386045 1938.45526327 836.23291537 1939.4932092 834.58203125 1940.53125 C832 1942 832 1942 830 1942 C829.67 1942.66 829.34 1943.32 829 1944 C827.50048828 1945.04980469 827.50048828 1945.04980469 825.5703125 1946.171875 C824.50973633 1946.79267944 824.50973633 1946.79267944 823.42773438 1947.42602539 C822.66783203 1947.86293701 821.90792969 1948.29984863 821.125 1948.75 C820.34705078 1949.20173584 819.56910156 1949.65347168 818.76757812 1950.11889648 C809.39256266 1955.54259579 799.84653445 1960.62375652 790.26879883 1965.67724609 C786.22260055 1967.81395681 782.19464319 1969.97806215 778.1875 1972.1875 C773.53871887 1974.73660506 768.82451085 1977.13049595 764.0703125 1979.4765625 C761.93161523 1980.53774817 759.8019882 1981.61732843 757.6796875 1982.7109375 C756.60976562 1983.26007813 755.53984375 1983.80921875 754.4375 1984.375 C753.46683594 1984.87773437 752.49617188 1985.38046875 751.49609375 1985.8984375 C749 1987 749 1987 746 1987 C745.67 1987.66 745.34 1988.32 745 1989 C743.21484375 1989.9296875 743.21484375 1989.9296875 740.9375 1990.875 C737.8633518 1992.18553228 734.85122972 1993.54235136 731.875 1995.0625 C728.31161139 1996.86879363 724.6830498 1998.44924219 721 2000 C719.52004221 2000.66490857 718.04091775 2001.33167417 716.5625 2002 C711.1566292 2004.40773426 705.75403175 2006.57648888 700 2008 C694.17918963 2009.80675848 688.48716678 2011.91542111 682.8203125 2014.15234375 C681.25343583 2014.76486655 679.68637037 2015.37690656 678.11914062 2015.98852539 C677.30550049 2016.3064505 676.49186035 2016.62437561 675.65356445 2016.95193481 C649.80864102 2027.02557827 623.87960647 2036.68321207 596.89990234 2043.26513672 C592.58258202 2044.35918742 588.30463438 2045.58493572 584.02001953 2046.79980469 C532.68098788 2061.3121601 480.18929644 2071.27890878 427.1875 2077.25 C426.16962906 2077.36583435 426.16962906 2077.36583435 425.13119507 2077.48400879 C401.91779084 2080.09205684 378.76952996 2081.31602354 355.4140625 2081.30078125 C352.85085992 2081.30468918 350.28765797 2081.30902795 347.72445679 2081.31376648 C342.39163843 2081.32115387 337.05888914 2081.32113858 331.72607422 2081.31567383 C326.343188 2081.31032892 320.9604921 2081.31736029 315.57763672 2081.33618164 C285.5697197 2081.43862029 255.85120602 2081.24372391 226 2078 C224.03255343 2077.80296059 222.06495812 2077.60739639 220.09716797 2077.41381836 C215.43144164 2076.94148564 210.77783168 2076.39744615 206.125 2075.8125 C205.30878174 2075.71151001 204.49256348 2075.61052002 203.65161133 2075.50646973 C149.46420762 2068.74394329 95.77858419 2057.32881502 43.484375 2041.60546875 C39.34638565 2040.36575967 35.18426711 2039.27182127 31 2038.19921875 C21.91870803 2035.82573885 13.09655368 2032.74686638 4.25 2029.625 C3.38816101 2029.32242279 2.52632202 2029.01984558 1.6383667 2028.70809937 C-16.4604613 2022.34110051 -34.28201611 2015.35461396 -52 2008 C-52.62988831 2007.73856201 -53.25977661 2007.47712402 -53.90875244 2007.20776367 C-61.96281851 2003.8598671 -69.99183754 2000.45608829 -78 1997 C-79.7795105 1996.24432739 -79.7795105 1996.24432739 -81.5949707 1995.47338867 C-91.67351349 1991.16403447 -101.48973894 1986.39468906 -111.27758789 1981.46411133 C-113.85262695 1980.1672916 -116.43094816 1978.87717793 -119.00976562 1977.58789062 C-120.65904556 1976.7607982 -122.30814133 1975.93333843 -123.95703125 1975.10546875 C-124.72255814 1974.7221489 -125.48808502 1974.33882904 -126.27680969 1973.94389343 C-126.98572861 1973.58624405 -127.69464752 1973.22859467 -128.42504883 1972.86010742 C-129.35526604 1972.39213997 -129.35526604 1972.39213997 -130.30427551 1971.91471863 C-131.92568176 1971.04008923 -133.46714411 1970.02190392 -135 1969 C-136.06605469 1968.71511719 -137.13210938 1968.43023438 -138.23046875 1968.13671875 C-142.34151033 1966.89701606 -145.69109417 1965.04777535 -149.3125 1962.8125 C-150.80509536 1961.91257768 -152.29865174 1961.01424811 -153.79296875 1960.1171875 C-154.6132959 1959.6231543 -155.43362305 1959.12912109 -156.27880859 1958.62011719 C-161.52461144 1955.49692073 -166.8303222 1952.47681218 -172.125 1949.4375 C-197.23062027 1934.9806727 -197.23062027 1934.9806727 -206.8984375 1928.390625 C-209.2017011 1926.86653236 -211.55706364 1925.46275668 -213.9375 1924.0625 C-218.38516309 1921.43275849 -222.5877214 1918.54242948 -226.7734375 1915.515625 C-228.91739958 1913.97642791 -228.91739958 1913.97642791 -231.1015625 1912.984375 C-233 1912 -233 1912 -234.40893555 1910.57543945 C-235.97784057 1909.02194181 -237.47660772 1907.9560647 -239.35546875 1906.80859375 C-239.97744141 1906.42123047 -240.59941406 1906.03386719 -241.24023438 1905.63476562 C-242.54866048 1904.83028698 -243.85858345 1904.02823827 -245.16992188 1903.22851562 C-246.81242433 1902.20259386 -248.41063926 1901.10646382 -250 1900 C-250 1899.34 -250 1898.68 -250 1898 C-250.763125 1897.71125 -251.52625 1897.4225 -252.3125 1897.125 C-255 1896 -255 1896 -258 1894 C-258 1893.34 -258 1892.68 -258 1892 C-259.0828125 1891.62875 -259.0828125 1891.62875 -260.1875 1891.25 C-263.2843835 1889.87360733 -265.37594344 1888.13926019 -268 1886 C-272.75567484 1882.4557416 -277.52369415 1878.91773362 -282.5 1875.6875 C-284.650729 1874.23575792 -286.22126289 1872.85607351 -288 1871 C-291.31393725 1868.21788481 -291.31393725 1868.21788481 -295 1866 C-295 1865.34 -295 1864.68 -295 1864 C-303.24179296 1866.6459308 -311.27881311 1869.46098508 -319.23828125 1872.8828125 C-321.80666704 1873.92179176 -324.33621559 1874.74617866 -327 1875.5 C-331.84852428 1876.87310208 -336.3845746 1878.77533892 -341.015625 1880.75 C-346.95446813 1883.23747356 -353.04198861 1885.31522515 -359.1171875 1887.44140625 C-360.59902767 1887.96073969 -362.08079738 1888.48027424 -363.5625 1889 C-364.29952148 1889.25813477 -365.03654297 1889.51626953 -365.79589844 1889.78222656 C-369.71623161 1891.16391138 -373.59265056 1892.60468343 -377.4375 1894.1875 C-380.55006671 1895.46821885 -383.63766846 1896.51693179 -386.875 1897.4375 C-390.56336117 1898.50112043 -394.03396692 1899.80095923 -397.5625 1901.3125 C-407.4525805 1905.54197887 -417.68918371 1909.02641632 -427.9453125 1912.26171875 C-429.74933452 1912.90993198 -431.5159657 1913.66029532 -433.2734375 1914.42578125 C-438.15664973 1916.5439184 -443.21911981 1918.08715432 -448.28125 1919.71875 C-452.85878288 1921.29588318 -457.21403793 1923.19206478 -461.625 1925.1875 C-464.41763091 1926.14287373 -466.06809526 1926.45877473 -469 1926 C-470.97241211 1923.61987305 -470.97241211 1923.61987305 -472.83984375 1920.32421875 C-473.17966782 1919.73686447 -473.51949188 1919.14951019 -473.86961365 1918.5443573 C-474.92950778 1916.70508824 -475.96443521 1914.85304784 -477 1913 C-478.25111855 1910.83973745 -479.50241624 1908.67957863 -480.75390625 1906.51953125 C-482.02545846 1904.28500298 -483.29492382 1902.04928614 -484.5625 1899.8125 C-485.96765477 1897.34182403 -487.37451273 1894.87211894 -488.78125 1892.40234375 C-489.31063927 1891.47219452 -489.31063927 1891.47219452 -489.85072327 1890.52325439 C-493.39784056 1884.29361915 -496.97679664 1878.0824978 -500.5625 1871.875 C-501.48397827 1870.27942261 -501.48397827 1870.27942261 -502.42407227 1868.65161133 C-503.66292223 1866.50690413 -504.90193541 1864.3622912 -506.14111328 1862.21777344 C-509.26324605 1856.81329355 -512.38141204 1851.40652588 -515.5 1846 C-516.74998122 1843.8333225 -517.99998121 1841.66665583 -519.25 1839.5 C-556.75 1774.5 -556.75 1774.5 -558.62524414 1771.24951172 C-559.87435518 1769.08442929 -561.12354129 1766.91939018 -562.37280273 1764.75439453 C-565.51202309 1759.31384294 -568.64990563 1753.87252784 -571.78515625 1748.4296875 C-577.80747329 1737.97793801 -583.84669337 1727.53700452 -589.9375 1717.125 C-595.35921178 1707.85500223 -600.70204915 1698.54168248 -606.01922607 1689.21154785 C-611.22045129 1680.0871716 -616.48027878 1670.99867226 -621.78344727 1661.93310547 C-627.93766742 1651.40915375 -634.02369996 1640.84619863 -640.10888672 1630.28222656 C-643.23680148 1624.85340058 -646.36858448 1619.42680719 -649.5 1614 C-650.75001879 1611.83334417 -652.00001878 1609.6666775 -653.25 1607.5 C-653.86875 1606.4275 -654.4875 1605.355 -655.125 1604.25 C-750.74999999 1438.50000002 -750.74999999 1438.50000002 -752.62524414 1435.24951172 C-753.87435518 1433.08442929 -755.12354129 1430.91939018 -756.37280273 1428.75439453 C-759.51202309 1423.31384294 -762.64990563 1417.87252784 -765.78515625 1412.4296875 C-766.41019043 1411.34510254 -767.03522461 1410.26051758 -767.67919922 1409.14306641 C-768.92481343 1406.9815689 -770.16993866 1404.81978952 -771.41455078 1402.65771484 C-774.59087364 1397.1472187 -777.78828352 1391.6503691 -781.01953125 1386.171875 C-781.66656006 1385.07246582 -782.31358887 1383.97305664 -782.98022461 1382.84033203 C-784.21499017 1380.74500122 -785.45388694 1378.65209772 -786.69750977 1376.56201172 C-787.52400024 1375.15846436 -787.52400024 1375.15846436 -788.3671875 1373.7265625 C-788.85300293 1372.90752441 -789.33881836 1372.08848633 -789.83935547 1371.24462891 C-790.94734182 1369.1018383 -791.69936835 1367.39187308 -792 1365 C-789.57564163 1361.27021789 -786.61505721 1358.56859328 -783 1356 C-782.34 1356 -781.68 1356 -781 1356 C-780.67 1355.01 -780.34 1354.02 -780 1353 C-778.29296875 1351.24609375 -778.29296875 1351.24609375 -776.1875 1349.4375 C-775.15689453 1348.53837891 -775.15689453 1348.53837891 -774.10546875 1347.62109375 C-772 1346 -772 1346 -769.80078125 1344.97265625 C-767.64414355 1344.07313533 -767.64414355 1344.07313533 -767 1341 C-765.2578125 1339.28125 -765.2578125 1339.28125 -763.125 1337.5 C-760.14615469 1334.99734679 -760.14615469 1334.99734679 -757.3671875 1332.28125 C-756 1331 -756 1331 -754 1331 C-754 1330.34 -754 1329.68 -754 1329 C-752.36395804 1327.62926214 -750.69321939 1326.29944744 -749 1325 C-748.443125 1324.4225 -747.88625 1323.845 -747.3125 1323.25 C-746 1322 -746 1322 -744 1322 C-743.67 1321.01 -743.34 1320.02 -743 1319 C-742.34 1319 -741.68 1319 -741 1319 C-740.67 1318.01 -740.34 1317.02 -740 1316 C-739.34 1316 -738.68 1316 -738 1316 C-738 1315.34 -738 1314.68 -738 1314 C-733.52941176 1310 -733.52941176 1310 -731 1310 C-730.67 1309.01 -730.34 1308.02 -730 1307 C-729.34 1307 -728.68 1307 -728 1307 C-727.67 1306.01 -727.34 1305.02 -727 1304 C-725.3984375 1302.38671875 -725.3984375 1302.38671875 -723.375 1300.6875 C-722.65441406 1300.07519531 -721.93382812 1299.46289062 -721.19140625 1298.83203125 C-720.46824219 1298.22746094 -719.74507812 1297.62289063 -719 1297 C-717.76908847 1295.96039578 -716.53979309 1294.91887346 -715.3125 1293.875 C-714.74660156 1293.39417969 -714.18070313 1292.91335938 -713.59765625 1292.41796875 C-712.08532111 1291.07572509 -710.66366627 1289.63329505 -709.25 1288.1875 C-707 1286 -707 1286 -704 1285 C-703.67 1284.01 -703.34 1283.02 -703 1282 C-702.34 1282 -701.68 1282 -701 1282 C-701 1281.34 -701 1280.68 -701 1280 C-699.3203125 1278.2734375 -699.3203125 1278.2734375 -697.125 1276.375 C-696.40570312 1275.74335937 -695.68640625 1275.11171875 -694.9453125 1274.4609375 C-693 1273 -693 1273 -691 1273 C-690.67 1272.01 -690.34 1271.02 -690 1270 C-688.2578125 1268.28125 -688.2578125 1268.28125 -686.125 1266.5 C-683.14615469 1263.99734679 -683.14615469 1263.99734679 -680.3671875 1261.28125 C-679 1260 -679 1260 -677 1260 C-677 1259.34 -677 1258.68 -677 1258 C-675.36395804 1256.62926214 -673.69321939 1255.29944744 -672 1254 C-671.443125 1253.4225 -670.88625 1252.845 -670.3125 1252.25 C-669 1251 -669 1251 -667 1251 C-666.67 1250.01 -666.34 1249.02 -666 1248 C-665.34 1248 -664.68 1248 -664 1248 C-663.67 1247.01 -663.34 1246.02 -663 1245 C-662.34 1245 -661.68 1245 -661 1245 C-661 1244.34 -661 1243.68 -661 1243 C-656.52941176 1239 -656.52941176 1239 -654 1239 C-653.84913335 1233.013337 -654.42228924 1227.46431337 -655.375 1221.5625 C-657.06829997 1210.43325366 -657.9383928 1199.29503526 -658.76171875 1188.07373047 C-659.06402702 1184.17407768 -659.42717274 1180.28174846 -659.79882812 1176.38818359 C-664.32971114 1128.90620766 -663.76748472 1080.97188935 -661.13021851 1033.4057312 C-661.00007276 1031.00134421 -660.87937622 1028.59664254 -660.76098633 1026.19165039 C-660.32700595 1017.55726777 -659.67991311 1009.01568535 -658.5625 1000.4375 C-658.29384507 998.30734532 -658.02561775 996.17713667 -657.7578125 994.046875 C-657.62793945 993.02529297 -657.49806641 992.00371094 -657.36425781 990.95117188 C-657.02773115 988.22467435 -656.72018531 985.49736078 -656.4296875 982.765625 C-656.34517334 981.98388916 -656.26065918 981.20215332 -656.17358398 980.39672852 C-655.95398374 978.3417517 -655.74041846 976.28613243 -655.52734375 974.23046875 C-655 971 -655 971 -654.01919556 969.06991577 C-652.93573505 966.86948232 -652.53313642 965.06920864 -652.16552734 962.65087891 C-652.03100662 961.79135117 -651.8964859 960.93182343 -651.75788879 960.04624939 C-651.5490229 958.65050438 -651.5490229 958.65050438 -651.3359375 957.2265625 C-651.01999516 955.20330937 -650.7036532 953.18011861 -650.38696289 951.15698242 C-650.22245636 950.09224701 -650.05794983 949.0275116 -649.88845825 947.93051147 C-642.67079607 901.46506843 -631.83737475 856.13101407 -618.59506226 811.03555298 C-617.98404659 808.94542753 -617.38070389 806.85319653 -616.77856445 804.76049805 C-614.00032613 795.14408257 -610.96392284 785.64532703 -607.6875 776.1875 C-607.44878174 775.49556549 -607.21006348 774.80363098 -606.96411133 774.09072876 C-603.29765498 763.48121733 -599.40091396 752.99920495 -595.08935547 742.63378906 C-593.83602728 739.60355497 -592.60659634 736.56414778 -591.37890625 733.5234375 C-585.75486327 719.60801579 -580.01182397 705.7524856 -574 692 C-573.45545166 690.74630615 -573.45545166 690.74630615 -572.89990234 689.46728516 C-568.57845405 679.54530087 -563.99668714 669.84217715 -558.88012695 660.30444336 C-555.06727508 653.19395003 -551.47055351 645.98458237 -547.93017578 638.73486328 C-545.31337897 633.43092034 -542.47268796 628.35101964 -539.38769531 623.30541992 C-536.89899779 619.17087194 -534.73503616 614.87370717 -532.515625 610.58984375 C-531 608 -531 608 -529 607 C-528.26924352 604.6859378 -527.59861742 602.35171131 -527 600 C-526.34 600 -525.68 600 -525 600 C-524.92007812 599.30519531 -524.84015625 598.61039063 -524.7578125 597.89453125 C-523.81439484 594.29106483 -521.99386183 591.68450865 -519.875 588.6875 C-515.21674099 581.91122129 -510.83129236 574.98924231 -506.5 568 C-498.21034005 554.66895353 -489.60246221 541.65802208 -480.40087891 528.94091797 C-478.84801461 526.78942421 -477.30463789 524.63129216 -475.76171875 522.47265625 C-470.03529925 514.47655861 -464.23677221 506.60839316 -458 499 C-456.05663724 496.58801986 -454.12194912 494.16913168 -452.1875 491.75 C-451.67654785 491.11199463 -451.1655957 490.47398926 -450.63916016 489.81665039 C-447.17098694 485.48116131 -443.73488646 481.12167476 -440.3125 476.75 C-432.56054659 466.87765531 -424.59753935 457.37659785 -416.0078125 448.22265625 C-413.15272777 445.17670479 -410.38635585 442.06460775 -407.65625 438.90625 C-404.98693225 435.83401636 -402.26051382 432.81406304 -399.52954102 429.79663086 C-397.93264881 428.03112558 -396.33951886 426.26220333 -394.75170898 424.48852539 C-386.98862211 415.89847234 -378.85302846 407.70029169 -370.65600586 399.52563477 C-368.302707 397.17772944 -365.9548461 394.82448032 -363.60742188 392.47070312 C-362.08886242 390.95280403 -360.56999304 389.43521494 -359.05078125 387.91796875 C-358.36099686 387.22616013 -357.67121246 386.5343515 -356.96052551 385.82157898 C-353.01510002 381.89486593 -348.96912801 378.14170781 -344.7507782 374.50923157 C-342.28959128 372.38760303 -339.89639339 370.19428793 -337.5 368 C-329.71032942 360.90298138 -321.73317903 354.03660743 -313.72265625 347.19140625 C-311.26140877 345.0862816 -308.81178458 342.96876027 -306.37109375 340.83984375 C-300.45513087 335.69310164 -294.51294214 330.78740663 -288.10546875 326.25390625 C-284.01536016 323.28536203 -280.04287658 320.17591672 -276.0625 317.0625 C-269.09953768 311.6258133 -262.11289269 306.24015333 -255 301 C-254.35659668 300.52240234 -253.71319336 300.04480469 -253.05029297 299.55273438 C-243.1278784 292.20076307 -233.00684414 285.35064761 -222.51953125 278.83203125 C-218.45597483 276.3024738 -214.46706467 273.67763445 -210.5 271 C-202.5734169 265.66698631 -194.50944968 260.56063257 -186.40527344 255.50244141 C-184.82083681 254.5127314 -183.23810662 253.52028347 -181.65722656 252.52490234 C-173.5102417 247.39896163 -165.36436352 242.51255191 -156.69750977 238.31689453 C-151.29403165 235.68887146 -146.00850885 232.87213613 -140.72607422 230.0090332 C-93.25030315 204.27715194 -93.25030315 204.27715194 -71.234375 196.0078125 C-63.88196745 193.24242042 -56.67216888 190.11927011 -49.4375 187.0625 C-47.38425752 186.19541573 -45.33086673 185.32869387 -43.2769165 184.46328735 C-41.47372185 183.70340467 -39.67128591 182.9417223 -37.86889648 182.17993164 C-35.93886717 181.38614118 -33.97979918 180.65993306 -32 180 C-29.5159217 172.4278124 -28.58579286 164.33122779 -27.234375 156.48706055 C-26.9617219 154.91749711 -26.6888063 153.34797926 -26.41564941 151.77850342 C-25.67748998 147.53295921 -24.94295681 143.28679479 -24.20906067 139.04051185 C-23.4381021 134.5836619 -22.66369942 130.12741051 -21.88964844 125.6710968 C-20.42354166 117.22753841 -18.96037393 108.78347359 -17.49833298 100.33921033 C-15.35646004 87.96927777 -13.2100405 75.60013401 -11.06378174 63.2309618 C-10.74596934 61.39932101 -10.42815926 59.56767981 -10.11035156 57.73603821 C-9.95505604 56.84103806 -9.79976051 55.94603791 -9.63975906 55.02391654 C-8.72129581 49.73005031 -7.80362383 44.43604768 -6.88668823 39.14191663 C-6.31431381 35.83739416 -5.74161048 32.53292873 -5.16886902 29.22846985 C-4.9050842 27.70602012 -4.6414568 26.1835431 -4.37800598 24.66103554 C-4.01576439 22.56766816 -3.65295812 20.47439931 -3.29003906 18.38114929 C-2.98697845 16.63104065 -2.98697845 16.63104065 -2.67779541 14.84557629 C-1.80497986 9.89352328 -0.8995045 4.94727476 0 0 Z M53 52 C37.7677473 137.96032417 37.7677473 137.96032417 23 224 C21.63617187 224.38800781 20.27234375 224.77601563 18.8671875 225.17578125 C12.16328374 227.18930876 5.65780456 229.68214467 -0.875 232.1875 C-2.1649308 232.68008341 -3.45488881 233.1725956 -4.74487305 233.66503906 C-19.95841024 239.48388508 -35.09323783 245.4402318 -49.96289062 252.09472656 C-52.02677616 253.01189909 -54.09842285 253.90937659 -56.171875 254.8046875 C-84.89413817 267.32947767 -113.67540792 281.54617729 -140.19140625 298.26953125 C-142.95603876 299.97291401 -145.76144253 301.53232413 -148.625 303.0625 C-153.15935853 305.49557043 -157.47592549 308.15929077 -161.79296875 310.95703125 C-165.01025572 313.00653318 -168.26293558 314.985372 -171.52832031 316.95678711 C-179.91214013 322.02353797 -188.00535335 327.33458246 -196 333 C-198.14444086 334.4811847 -200.29029442 335.96032604 -202.4375 337.4375 C-212.75755044 344.59074796 -222.94184343 351.87044878 -232.859375 359.57421875 C-235.8399647 361.87639065 -238.85054689 364.13092049 -241.875 366.375 C-248.45475287 371.29460386 -254.8607397 376.42021718 -261.24853516 381.58496094 C-262.83314606 382.86519578 -264.42217693 384.13995505 -266.01171875 385.4140625 C-271.66900216 389.98185481 -277.09672234 394.74309692 -282.44921875 399.6640625 C-284.60818752 401.64118858 -286.78897727 403.58167885 -289 405.5 C-293.09375842 409.05687207 -297.09422436 412.71278375 -301.09375 416.375 C-302.61366701 417.74782827 -304.13702715 419.11746543 -305.69200134 420.45045471 C-311.28919141 425.25138497 -316.5162725 430.37114025 -321.72265625 435.58984375 C-322.62696884 436.49319962 -323.53128143 437.39655548 -324.46299744 438.32728577 C-326.36434943 440.22796068 -328.26467553 442.12959608 -330.16333008 444.03295898 C-332.57585861 446.45118392 -334.99285081 448.86488958 -337.41121769 451.27727413 C-339.74664575 453.60818401 -342.07822177 455.94293956 -344.41015625 458.27734375 C-345.26762955 459.13279282 -346.12510284 459.98824188 -347.00856018 460.86961365 C-351.34983738 465.2276914 -355.55199409 469.64768087 -359.55641174 474.31829834 C-361.60415607 476.7038089 -363.74186272 479.00339686 -365.875 481.3125 C-370.00103527 485.83119422 -373.88391872 490.49480952 -377.72265625 495.2578125 C-380.04342178 498.05228489 -382.4654112 500.71393717 -384.9375 503.375 C-389.89556065 508.76918636 -394.31909594 514.48599048 -398.72460938 520.32617188 C-400.40652705 522.53352784 -402.12867155 524.70742146 -403.85375977 526.88110352 C-414.57836316 540.40121034 -424.91751813 554.19402244 -434.59375 568.484375 C-436.63194885 571.48719312 -438.76257098 574.40665221 -440.9375 577.3125 C-446.11663543 584.3787698 -450.67060182 591.84366139 -455.29785156 599.27685547 C-457.06906378 602.11049016 -458.85716642 604.93291397 -460.6484375 607.75390625 C-484.22498738 644.98534808 -505.58831564 684.47876476 -523 725 C-523.48823242 726.13244141 -523.97646484 727.26488281 -524.47949219 728.43164062 C-531.79304128 745.43552955 -538.62805258 762.55533072 -544.90185547 779.97460938 C-545.90432938 782.73642722 -546.93155889 785.48693225 -547.97265625 788.234375 C-558.35884692 815.78533655 -566.45761908 843.84900711 -573.4375 872.4375 C-573.87693939 874.23714706 -573.87693939 874.23714706 -574.32525635 876.07315063 C-576.26170858 884.03846232 -578.14960227 892.0142775 -580 900 C-580.2294632 900.9851358 -580.45892639 901.97027161 -580.69534302 902.98526001 C-584.35620458 918.82062639 -587.07682667 934.75463284 -589.5625 950.8125 C-589.75765198 952.06378693 -589.95280396 953.31507385 -590.15386963 954.60427856 C-593.12351606 973.68520628 -595.97443869 992.74461877 -597.8013916 1011.97198486 C-598.00251976 1014.02572961 -598.22133489 1016.07694067 -598.44433594 1018.12841797 C-601.32619257 1045.02825923 -601.26710549 1071.98012261 -601.25 1099 C-601.24973312 1099.91788048 -601.24946625 1100.83576096 -601.24919128 1101.78145599 C-601.2393402 1123.20395422 -601.12805407 1144.60176315 -600 1166 C-599.94356323 1167.07562195 -599.94356323 1167.07562195 -599.88598633 1168.17297363 C-599.67765462 1171.99421577 -599.42011766 1175.80955027 -599.125 1179.625 C-598.99810791 1181.28680298 -598.99810791 1181.28680298 -598.86865234 1182.98217773 C-596.64511511 1210.70925257 -592.63920918 1238.75260614 -587 1266 C-587.53625 1266.226875 -588.0725 1266.45375 -588.625 1266.6875 C-591.82460161 1268.45570089 -594.29037223 1270.53670203 -597 1273 C-597 1273.66 -597 1274.32 -597 1275 C-597.53625 1275.226875 -598.0725 1275.45375 -598.625 1275.6875 C-603.31073086 1278.27698284 -607.43251864 1282.02088618 -611 1286 C-611 1286.66 -611 1287.32 -611 1288 C-611.58910156 1288.26039062 -612.17820312 1288.52078125 -612.78515625 1288.7890625 C-615.13575944 1290.07422474 -616.60327056 1291.43486817 -618.4375 1293.375 C-620.54542231 1295.56015223 -622.53846842 1297.42390067 -624.9375 1299.3125 C-625.618125 1299.869375 -626.29875 1300.42625 -627 1301 C-627 1301.66 -627 1302.32 -627 1303 C-627.99 1303.33 -628.98 1303.66 -630 1304 C-630 1304.66 -630 1305.32 -630 1306 C-630.99 1306.33 -631.98 1306.66 -633 1307 C-633 1307.66 -633 1308.32 -633 1309 C-634.32 1309.33 -635.64 1309.66 -637 1310 C-637 1310.66 -637 1311.32 -637 1312 C-637.99 1312.33 -638.98 1312.66 -640 1313 C-640 1313.66 -640 1314.32 -640 1315 C-640.99 1315.33 -641.98 1315.66 -643 1316 C-643 1316.66 -643 1317.32 -643 1318 C-643.53625 1318.226875 -644.0725 1318.45375 -644.625 1318.6875 C-647.82460161 1320.45570089 -650.29037223 1322.53670203 -653 1325 C-653 1325.66 -653 1326.32 -653 1327 C-653.99 1327.33 -654.98 1327.66 -656 1328 C-656 1328.66 -656 1329.32 -656 1330 C-656.99 1330.33 -657.98 1330.66 -659 1331 C-660.71108689 1332.62102968 -662.37253306 1334.29503463 -664 1336 C-666.66673596 1338.7351138 -669.33344759 1341.30285945 -672.3125 1343.6875 C-673.199375 1344.450625 -674.08625 1345.21375 -675 1346 C-675 1346.66 -675 1347.32 -675 1348 C-675.99 1348.33 -676.98 1348.66 -678 1349 C-678 1349.66 -678 1350.32 -678 1351 C-678.598125 1351.28875 -679.19625 1351.5775 -679.8125 1351.875 C-682.19327792 1353.04742026 -682.19327792 1353.04742026 -685 1355 C-685 1355.66 -685 1356.32 -685 1357 C-685.99 1357.33 -686.98 1357.66 -688 1358 C-688 1358.66 -688 1359.32 -688 1360 C-688.99 1360.33 -689.98 1360.66 -691 1361 C-691 1361.66 -691 1362.32 -691 1363 C-691.99 1363.33 -692.98 1363.66 -694 1364 C-694 1364.66 -694 1365.32 -694 1366 C-694.53625 1366.226875 -695.0725 1366.45375 -695.625 1366.6875 C-698.82460161 1368.45570089 -701.29037223 1370.53670203 -704 1373 C-704 1373.66 -704 1374.32 -704 1375 C-704.99 1375.33 -705.98 1375.66 -707 1376 C-708.70993434 1377.6222454 -710.37347684 1379.29413425 -712 1381 C-712.763125 1381.721875 -713.52625 1382.44375 -714.3125 1383.1875 C-716.22713951 1384.83122273 -716.22713951 1384.83122273 -716 1387 C-716.66 1387.33 -717.32 1387.66 -718 1388 C-705.44529787 1410.01119965 -692.85549304 1432.00112071 -680.0625 1453.875 C-674.64088505 1463.14505515 -669.29795143 1472.4583165 -663.98077393 1481.78845215 C-658.77954871 1490.9128284 -653.51972122 1500.00132774 -648.21655273 1509.06689453 C-642.06233258 1519.59084625 -635.97630004 1530.15380137 -629.89111328 1540.71777344 C-626.76319852 1546.14659942 -623.63141552 1551.57319281 -620.5 1557 C-619.24998121 1559.16665583 -617.99998122 1561.3333225 -616.75 1563.5 C-616.13125 1564.5725 -615.5125 1565.645 -614.875 1566.75 C-504.25000001 1758.49999999 -504.25000001 1758.49999999 -502.37475586 1761.75048828 C-501.12564482 1763.91557071 -499.87645871 1766.08060982 -498.62719727 1768.24560547 C-495.48797691 1773.68615706 -492.35009437 1779.12747216 -489.21484375 1784.5703125 C-483.13178401 1795.12731896 -477.0293877 1805.67189717 -470.875 1816.1875 C-453.87879159 1845.24241683 -453.87879159 1845.24241683 -450 1853 C-444.94746801 1852.45378033 -440.52957151 1850.81733895 -435.80859375 1849.04296875 C-433.30399047 1848.11288659 -430.79186377 1847.25871753 -428.25 1846.4375 C-424.3958502 1845.17094194 -420.72687595 1843.60641205 -417 1842 C-413.34785721 1840.62615318 -409.67348952 1839.31550638 -406 1838 C-404.16628886 1837.33437322 -402.33295077 1836.66771778 -400.5 1836 C-396.83333333 1834.66666667 -393.16666667 1833.33333333 -389.5 1832 C-388.58605469 1831.66742187 -387.67210937 1831.33484375 -386.73046875 1830.9921875 C-384.96285107 1830.34987721 -383.19465772 1829.70914801 -381.42578125 1829.0703125 C-370.98784052 1825.29455516 -360.59231785 1821.40527974 -350.25 1817.375 C-345.29314364 1815.45915981 -340.29651187 1813.75149989 -335.24609375 1812.1015625 C-328.06768441 1809.665568 -320.99817999 1806.91191378 -313.91870117 1804.20385742 C-310.24699783 1802.808912 -306.59233723 1801.51657262 -302.8125 1800.4375 C-300.26363198 1799.69262533 -297.83821792 1798.93451678 -295.375 1797.9375 C-286.59036145 1794.46987952 -286.59036145 1794.46987952 -282 1796 C-281.67 1796.99 -281.34 1797.98 -281 1799 C-279.02053408 1800.36363208 -277.0180755 1801.69418644 -275 1803 C-273.66666667 1804.33333333 -272.33333333 1805.66666667 -271 1807 C-270.34 1807 -269.68 1807 -269 1807 C-268.67 1807.99 -268.34 1808.98 -268 1810 C-266.65435543 1810.93160009 -265.30009443 1811.85228075 -263.9140625 1812.72265625 C-261.64510519 1814.23683797 -259.55785283 1815.90868835 -257.4375 1817.625 C-252.46591007 1821.64394995 -247.41592854 1825.55244774 -242.33984375 1829.4375 C-240.1769414 1831.09307037 -238.02575322 1832.76086356 -235.87890625 1834.4375 C-227.76032862 1840.76208482 -219.42578324 1846.73582366 -210.98242188 1852.61865234 C-209.24101166 1853.83206355 -207.50303844 1855.05040418 -205.765625 1856.26953125 C-192.52531853 1865.51373486 -179.18554147 1874.6873818 -165.25927734 1882.87231445 C-161.01453433 1885.36918769 -156.8728583 1887.99470027 -152.75 1890.6875 C-147.89232575 1893.84838454 -142.96081914 1896.75801291 -137.83984375 1899.47265625 C-135.15026217 1900.919185 -132.50279747 1902.42721222 -129.8605957 1903.95825195 C-124.11358879 1907.28784849 -118.30500962 1910.40823773 -112.33984375 1913.33203125 C-109.10383771 1914.94814187 -105.90730812 1916.62349739 -102.71337891 1918.32055664 C-82.48536101 1929.06391925 -62.12352579 1939.0907849 -40.92724609 1947.79052734 C-38.27142691 1948.88785247 -35.62754673 1950.00808454 -32.98828125 1951.14453125 C-21.43316227 1956.11518927 -9.71646623 1960.58379793 2.08886719 1964.92382812 C4.72402148 1965.89797775 7.35122527 1966.89039584 9.9765625 1967.890625 C15.61863782 1970.02188798 21.29919888 1972.03161628 27 1974 C27.63715942 1974.22044983 28.27431885 1974.44089966 28.93078613 1974.66802979 C52.26419651 1982.71093819 75.91101887 1989.21224278 99.875 1995.0625 C100.53214619 1995.22313557 101.18929237 1995.38377113 101.86635208 1995.54927444 C126.34267939 2001.52626534 150.66726203 2006.6133214 175.5625 2010.5 C176.82377716 2010.69764954 178.08505432 2010.89529907 179.384552 2011.09893799 C198.53956668 2014.09155389 217.66817051 2016.9671747 236.97198486 2018.8013916 C239.02572961 2019.00251976 241.07694067 2019.22133489 243.12841797 2019.44433594 C295.93732137 2025.10049506 352.15978809 2024.95684315 404.95245361 2019.21813965 C406.9800777 2019.00212246 409.00862835 2018.8032337 411.03857422 2018.61035156 C452.88558302 2014.61461117 494.76789645 2007.69195675 535.56787109 1997.59710693 C538.06235627 1996.98469104 540.55984104 1996.38625438 543.05859375 1995.79150391 C582.47023229 1986.39501385 621.35336086 1974.58476849 658.88623047 1959.26806641 C661.8341823 1958.06752839 664.79096126 1956.89343112 667.75390625 1955.73046875 C677.25103473 1951.99602538 686.64828824 1948.07376168 695.96289062 1943.90527344 C698.02677616 1942.98810091 700.09842285 1942.09062341 702.171875 1941.1953125 C730.89413817 1928.67052233 759.67540792 1914.45382271 786.19140625 1897.73046875 C788.95603876 1896.02708599 791.76144253 1894.46767587 794.625 1892.9375 C799.15439233 1890.50709436 803.46603867 1887.84469483 807.78125 1885.0546875 C811.84279891 1882.46199973 815.94918315 1879.94699871 820.0625 1877.4375 C820.84488037 1876.96014404 821.62726074 1876.48278809 822.43334961 1875.9909668 C826.48834061 1873.52064556 830.5500971 1871.06238396 834.625 1868.625 C835.3675 1868.17898438 836.11 1867.73296875 836.875 1867.2734375 C838.37136505 1866.37671874 839.8717539 1865.48669754 841.375 1864.6015625 C842.1175 1864.15554688 842.86 1863.70953125 843.625 1863.25 C844.27726562 1862.86328125 844.92953125 1862.4765625 845.6015625 1862.078125 C846.06304688 1861.72234375 846.52453125 1861.3665625 847 1861 C847 1860.34 847 1859.68 847 1859 C847.721875 1858.731875 848.44375 1858.46375 849.1875 1858.1875 C851.99766383 1857.00098638 854.48416557 1855.72514361 857 1854 C857 1853.34 857 1852.68 857 1852 C857.721875 1851.731875 858.44375 1851.46375 859.1875 1851.1875 C861.99766383 1850.00098638 864.48416557 1848.72514361 867 1847 C867 1846.34 867 1845.68 867 1845 C867.680625 1844.773125 868.36125 1844.54625 869.0625 1844.3125 C872.6988709 1842.68773854 876.02829263 1840.67196743 879 1838 C879 1837.34 879 1836.68 879 1836 C879.66 1835.79375 880.32 1835.5875 881 1835.375 C885.07180186 1833.50875748 888.68796998 1831.02438473 892 1828 C892 1827.34 892 1826.68 892 1826 C893.65 1825.34 895.3 1824.68 897 1824 C897 1823.34 897 1822.68 897 1822 C898.65 1821.34 900.3 1820.68 902 1820 C902 1819.34 902 1818.68 902 1818 C903.65 1817.34 905.3 1816.68 907 1816 C907 1815.34 907 1814.68 907 1814 C908.10021484 1813.63261719 908.10021484 1813.63261719 909.22265625 1813.2578125 C913.13491689 1811.48601514 915.620757 1808.69612624 918.62109375 1805.6796875 C921.68650139 1803.51527817 923.30938322 1803.56580979 927 1804 C929.74609375 1804.8046875 929.74609375 1804.8046875 932.4375 1805.875 C936.59367694 1807.47052564 940.70484165 1808.81512873 945 1810 C950.38505219 1811.63317157 955.75862726 1813.30411245 961.1328125 1814.97265625 C967.2416271 1816.86347982 973.36300623 1818.7032739 979.5 1820.5 C988.2692383 1823.06925681 997.01109417 1825.7152167 1005.7109375 1828.51171875 C1006.54318848 1828.77799072 1007.37543945 1829.0442627 1008.23291016 1829.31860352 C1009.86132547 1829.84029661 1011.488684 1830.3653049 1013.11474609 1830.89428711 C1017.68705422 1832.35790955 1022.23708438 1833.56685304 1026.94140625 1834.52929688 C1029.86340918 1835.19742088 1032.65456288 1836.16888715 1035.484375 1837.1484375 C1038.47223799 1838.15985696 1041.48254282 1839.08072816 1044.5 1840 C1048.16459732 1841.11844357 1051.8129765 1842.25807761 1055.4375 1843.5 C1060.43124979 1845.18906243 1065.50214622 1846.59452412 1070.57421875 1848.02734375 C1075.06478192 1849.3023155 1079.53258251 1850.64667809 1084 1852 C1085.87485779 1852.56297383 1087.7498555 1853.1254819 1089.625 1853.6875 C1091.08334163 1854.12497234 1092.5416764 1854.56246755 1094 1855 C1099.37933147 1846.37307082 1104.54937259 1837.65859953 1109.5625 1828.8125 C1110.96636027 1826.34443247 1112.3719422 1823.87734636 1113.77734375 1821.41015625 C1114.30642334 1820.48062637 1114.30642334 1820.48062637 1114.84619141 1819.53231812 C1118.41793187 1813.25932594 1122.01705151 1807.0022335 1125.625 1800.75 C1126.24262207 1799.67967529 1126.86024414 1798.60935059 1127.49658203 1797.5065918 C1132.19082274 1789.38137532 1136.92327209 1781.27882578 1141.66064453 1773.17871094 C1146.15527427 1765.47975166 1150.58599899 1757.74531754 1155 1750 C1160.5400173 1740.27884383 1166.13374809 1730.59105342 1171.78344727 1720.93310547 C1177.93766742 1710.40915375 1184.02369996 1699.84619863 1190.10888672 1689.28222656 C1193.23680148 1683.85340058 1196.36858448 1678.42680719 1199.5 1673 C1200.75001879 1670.83334417 1202.00001878 1668.6666775 1203.25 1666.5 C1259.5 1569 1259.5 1569 1315.75 1471.5 C1316.36883057 1470.42733887 1316.98766113 1469.35467773 1317.62524414 1468.24951172 C1318.87435518 1466.08442929 1320.12354129 1463.91939018 1321.37280273 1461.75439453 C1324.51202309 1456.31384294 1327.64990563 1450.87252784 1330.78515625 1445.4296875 C1337.55386907 1433.68246458 1344.35142611 1421.95301053 1351.19213867 1410.24755859 C1355.50792378 1402.85781509 1359.77961488 1395.4446545 1364 1388 C1362.948125 1387.278125 1361.89625 1386.55625 1360.8125 1385.8125 C1357.53478001 1383.47876337 1354.8469777 1380.8469777 1352 1378 C1349.98162704 1376.43555831 1347.92694813 1374.92980966 1345.86328125 1373.42578125 C1343.72149285 1371.78688656 1341.90408467 1369.90408467 1340 1368 C1339.34 1368 1338.68 1368 1338 1368 C1338 1367.34 1338 1366.68 1338 1366 C1336.15283932 1364.50047084 1334.24537846 1363.07478913 1332.3125 1361.6875 C1328.16348769 1358.70365598 1324.60196735 1355.61317098 1321 1352 C1318.88379246 1350.26498742 1316.69688234 1348.63109594 1314.5 1347 C1310.33539634 1343.90795088 1306.65485533 1340.70342483 1303 1337 C1301.64961413 1335.92661636 1300.27647505 1334.88076445 1298.875 1333.875 C1296.87790253 1332.43740065 1295.09105687 1331.09457598 1293.3828125 1329.3203125 C1292.07756389 1327.76980902 1292.07756389 1327.76980902 1290 1328 C1289.67 1327.01 1289.34 1326.02 1289 1325 C1287.11646088 1323.45270538 1285.1684549 1321.98294287 1283.1875 1320.5625 C1280.17453286 1318.39360404 1277.35098009 1316.35461719 1274.73828125 1313.71484375 C1273.16966747 1311.76590292 1273.16966747 1311.76590292 1271 1312 C1271 1311.34 1271 1310.68 1271 1310 C1269.15283932 1308.50047084 1267.24537846 1307.07478913 1265.3125 1305.6875 C1261.1684833 1302.70724867 1257.576256 1299.63536767 1254 1296 C1252.64961413 1294.92661636 1251.27647505 1293.88076445 1249.875 1292.875 C1247.35599669 1291.06170968 1245.16979614 1289.21476601 1243 1287 C1241.67464292 1285.82428001 1240.34085649 1284.65801242 1239 1283.5 C1237.04482132 1281.81143659 1235.15018427 1280.15884875 1233.375 1278.28125 C1232.06936766 1276.77275813 1232.06936766 1276.77275813 1230 1277 C1230.309375 1276.030625 1230.61875 1275.06125 1230.9375 1274.0625 C1231.97249737 1270.47257907 1232.36545151 1266.97525909 1232.71875 1263.265625 C1233.15527883 1259.74914275 1234.10123818 1256.42652945 1235 1253 C1239.34711374 1228.40393857 1242.06601726 1203.48147706 1244.427948 1178.62704468 C1244.61387105 1176.6790998 1244.80588744 1174.73173928 1244.99829102 1172.78442383 C1247.32611591 1147.46148556 1247.24369779 1121.97135316 1247.25 1096.5625 C1247.25044186 1095.74085609 1247.25088371 1094.91921219 1247.25133896 1094.07266998 C1247.25886263 1067.27857079 1246.75188873 1040.67504642 1244 1014 C1243.9175 1013.18354004 1243.835 1012.36708008 1243.75 1011.52587891 C1242.44106547 998.64545968 1240.82212201 985.81740537 1239 973 C1238.86271484 972.03322327 1238.72542969 971.06644653 1238.58398438 970.07037354 C1234.31418985 940.22467887 1228.80807211 910.84512717 1221.62634277 881.56402588 C1221.0122285 879.05005917 1220.40746409 876.53402995 1219.80566406 874.01708984 C1210.38922524 834.73347301 1197.86539995 796.5475125 1183 759 C1182.74320465 758.35061462 1182.4864093 757.70122925 1182.22183228 757.03216553 C1168.77633407 723.08441815 1153.30406728 690.15448146 1136 658 C1135.53400391 657.13391113 1135.06800781 656.26782227 1134.58789062 655.37548828 C1125.19977719 637.99452931 1115.16889206 621.09673027 1104.54980469 604.44238281 C1102.97193535 601.95577209 1101.4097031 599.45995159 1099.8515625 596.9609375 C1095.19049674 589.49549305 1090.5289447 582.10818449 1085.25 575.05859375 C1082.75838283 571.67155166 1080.36052025 568.22727588 1077.96313477 564.77319336 C1072.57530676 557.01097123 1067.10511831 549.36634028 1061.28125 541.92578125 C1059.03570754 539.04579614 1056.8577839 536.12446028 1054.6875 533.1875 C1049.49817025 526.24390125 1044.01120901 519.54975945 1038.51318359 512.84960938 C1037.17440875 511.21318501 1035.84616648 509.56815619 1034.51953125 507.921875 C1030.02223702 502.35000604 1025.32854781 497.02679878 1020.4765625 491.76171875 C1018.01207995 489.01347086 1015.68557317 486.19079132 1013.375 483.3125 C1010.16316528 479.33163443 1006.82671206 475.66445789 1003.1171875 472.14453125 C1001.30377435 470.30769763 999.64289119 468.43355699 997.96704102 466.47363281 C993.65494472 461.53185378 989.05169076 456.90792103 984.41015625 452.27734375 C983.50680038 451.37303116 982.60344452 450.46871857 981.67271423 449.53700256 C979.77203932 447.63565057 977.87040392 445.73532447 975.96704102 443.83666992 C973.54881608 441.42414139 971.13511042 439.00714919 968.72272587 436.58878231 C966.39181599 434.25335425 964.05706044 431.92177823 961.72265625 429.58984375 C960.86720718 428.73237045 960.01175812 427.87489716 959.13038635 426.99143982 C954.24470698 422.12459492 949.23887851 417.48286808 944 413 C942.45466772 411.60822597 940.91244964 410.21297685 939.375 408.8125 C933.60477776 403.60781256 927.70673606 398.55841549 921.7890625 393.52294922 C920.03446443 392.02933804 918.28275393 390.53239356 916.53125 389.03515625 C910.47037202 383.86581614 904.33815942 378.82756476 898 374 C895.9997786 372.4586206 893.99980053 370.91692541 892 369.375 C890.88559635 368.5192972 889.77100643 367.66383693 888.65625 366.80859375 C886.04739283 364.80679757 883.44454229 362.7974175 880.84375 360.78515625 C872.38869896 354.25935589 863.83813286 348.00050898 855 342 C852.99922402 340.60527918 850.99924788 339.20941038 849 337.8125 C843.14021993 333.75847433 837.23407812 329.77565036 831.3125 325.8125 C830.0121582 324.93911987 830.0121582 324.93911987 828.68554688 324.0480957 C823.68596615 320.71266927 818.62251688 317.53686626 813.45336914 314.47143555 C809.43763878 312.06295641 805.50705939 309.52265964 801.5625 307 C795.75071081 303.30931408 789.9431516 299.72035808 783.84765625 296.51171875 C781.70894482 295.37635342 779.60016416 294.21600744 777.49609375 293.01953125 C748.0947909 276.33952922 717.47612774 260.17407799 685.99560547 247.80078125 C683.07174876 246.62751846 680.1826146 245.37629712 677.28808594 244.1328125 C666.15308245 239.35868554 654.83838524 235.10726426 643.46923828 230.92626953 C641.75486877 230.28316908 640.05570924 229.59861067 638.37060547 228.88232422 C635.95298439 227.82559174 635.95298439 227.82559174 633 228 C632.89397461 226.9473999 632.78794922 225.8947998 632.67871094 224.81030273 C631.92146031 218.79689502 630.50004399 212.93581526 629.140625 207.03515625 C628.84041971 205.72024557 628.54049133 204.40527164 628.24081421 203.09024048 C627.42117347 199.49942297 626.59601277 195.90989453 625.76953888 192.32064438 C625.24853438 190.05612977 624.72909378 187.79126195 624.21014404 185.52627563 C616.89694712 153.61432001 609.37702985 121.7508705 601.83300781 89.89282227 C601.49992457 88.48596098 601.49992457 88.48596098 601.16011238 87.05067825 C600.11431135 82.63385194 599.06778199 78.21720115 598.0196228 73.80093384 C597.64669619 72.22756225 597.2737809 70.65418797 596.90087891 69.08081055 C596.65477057 68.04575677 596.65477057 68.04575677 596.40369034 66.98979282 C595.22240821 62.00194122 594.11225742 57.00515837 593 52 C414.8 52 236.6 52 53 52 Z " fill="#000000" transform="translate(881,102)"/>
<path d="" fill="#000000" transform="translate(0,0)"/>
<path d="" fill="#000000" transform="translate(0,0)"/>
<path d="" fill="#000000" transform="translate(0,0)"/>
<path d="" fill="#000000" transform="translate(0,0)"/>
<path d="" fill="#000000" transform="translate(0,0)"/>
<path d="" fill="#000000" transform="translate(0,0)"/>
<path d="" fill="#000000" transform="translate(0,0)"/>
</svg>
