<?xml version="1.0" encoding="UTF-8"?>
<svg version="1.1" xmlns="http://www.w3.org/2000/svg" width="512" height="512">
<path d="M0 0 C1.02608871 -0.0033284 2.05217743 -0.0066568 3.10935974 -0.01008606 C5.2787125 -0.01513856 7.448073 -0.0174949 9.61743164 -0.01733398 C12.89808373 -0.01950772 16.17839227 -0.0376463 19.45898438 -0.05664062 C40.56117207 -0.11434357 58.79634728 1.28948637 74.99609375 16.23046875 C85.52906502 27.33328663 88.06916347 39.58987543 90.37109375 54.16796875 C90.5530127 55.2878418 90.73493164 56.40771484 90.92236328 57.56152344 C94.37109375 78.86027644 94.37109375 78.86027644 94.37109375 83.16796875 C95.1375095 83.16682959 95.90392525 83.16569043 96.69356573 83.16451675 C142.12062801 83.09737812 187.54768489 83.04590684 232.97478684 83.01477276 C238.42964313 83.01102066 243.88449933 83.00713769 249.33935547 83.00317383 C250.42531614 83.0023869 251.51127681 83.00159997 252.63014539 83.00078919 C270.21235732 82.98773635 287.79453982 82.96408317 305.3767343 82.93651036 C323.41855874 82.90845279 341.46036776 82.89179174 359.50221312 82.88570327 C370.63440154 82.88158756 381.76650675 82.86858975 392.89866956 82.84421935 C400.5330836 82.82835784 408.16745465 82.82356934 415.80188398 82.82746462 C420.20610941 82.82938551 424.61018947 82.826447 429.01438904 82.81035233 C433.05014497 82.79571205 437.08565829 82.79504306 441.12142558 82.80527207 C442.57785718 82.80653559 444.03430415 82.80276504 445.49070565 82.7933192 C456.65602859 82.72514168 466.44391695 83.20758714 474.7421875 91.3046875 C480.22639485 97.57798943 479.85970616 104.06919095 479.52476597 112.0880084 C479.0148299 118.9900159 477.42333173 125.7823372 476.03808594 132.54931641 C475.67891814 134.35432356 475.3209141 136.1595626 474.963974 137.9650116 C473.99877394 142.82892922 473.0169179 147.68934228 472.0314436 152.54918718 C470.99817709 157.65736107 469.97910935 162.76836893 468.95806885 167.8789978 C467.24220012 176.45636686 465.51583186 185.03156917 463.78271484 193.60546875 C461.78425046 203.49253447 459.80064303 213.38248841 457.82537913 223.27421343 C455.91807604 232.82459919 454.00198526 242.37319954 452.08133698 251.92090988 C451.26711332 255.96872899 450.45560299 260.01707769 449.64626312 264.06587601 C448.69147631 268.83955685 447.72885926 273.61159618 446.76037788 278.38251686 C446.40788318 280.1249689 446.05792378 281.86793623 445.71080589 283.61146736 C443.03094903 297.05859981 440.23243114 309.66957889 432.37109375 321.16796875 C431.84644531 321.94011719 431.32179688 322.71226562 430.78125 323.5078125 C424.49570978 332.15967375 416.68733935 337.75063058 407.24609375 342.54296875 C406.58939697 342.8769165 405.9327002 343.21086426 405.25610352 343.55493164 C394.36573255 348.84034454 382.91162568 349.31973605 370.97506714 349.30841064 C369.97734161 349.31138177 368.97961609 349.31435289 367.95165646 349.31741405 C364.63426618 349.32603193 361.31691227 349.32760339 357.99951172 349.32910156 C355.61023381 349.33373461 353.22095663 349.33875992 350.8316803 349.34414673 C344.35826541 349.35722517 337.88485743 349.36374426 331.41143179 349.36815739 C327.36120188 349.37093052 323.31097432 349.37516972 319.260746 349.37966156 C308.02272378 349.39184482 296.78470341 349.40214653 285.54667473 349.40553665 C284.4701419 349.405866 284.4701419 349.405866 283.37186093 349.406202 C282.29292007 349.40652942 282.29292007 349.40652942 281.19218242 349.40686345 C279.73489245 349.4073069 278.27760247 349.40775346 276.8203125 349.40820312 C276.09746386 349.40842455 275.37461523 349.40864598 274.62986208 349.40887412 C262.92716539 349.41281899 251.22453106 349.43026771 239.52185844 349.45356265 C227.47552994 349.47734601 215.42923266 349.48974164 203.38288033 349.49090457 C196.63192662 349.49181733 189.88105427 349.49746832 183.13012314 349.51572418 C176.77544766 349.53227595 170.42092593 349.53432595 164.0662365 349.52558517 C161.74441171 349.52481862 159.42257841 349.52910667 157.10077477 349.53904343 C125.09048192 349.66791954 125.09048192 349.66791954 112.12109375 342.66796875 C111.46689453 342.32612549 110.81269531 341.98428223 110.13867188 341.63208008 C95.60465781 333.64014478 84.23515943 320.02776618 79.37109375 304.16796875 C78.629951 300.85886553 78.03166899 297.52982314 77.44619751 294.19004822 C77.18850584 292.74385083 77.18850584 292.74385083 76.92560828 291.26843733 C75.04963308 280.58520381 73.47048459 269.86149842 71.91943359 259.12719727 C71.59731459 256.91853893 71.27483971 254.70993248 70.95204163 252.50137329 C70.26513099 247.79682335 69.58054894 243.09194298 68.89783859 238.38678169 C67.8176328 230.94315567 66.73124388 223.50043977 65.64395142 216.05784607 C64.12055199 205.62635454 62.59913328 195.19457614 61.08007812 184.76245117 C60.98417446 184.10384005 60.8882708 183.44522894 60.78946097 182.76665991 C59.71686718 175.40040321 58.64471945 168.03408164 57.57281494 160.66772461 C57.18234823 157.98445407 56.79186498 155.30118594 56.40136719 152.61791992 C56.30497803 151.95558366 56.20858888 151.29324739 56.10927884 150.61084033 C54.50116486 139.56147915 52.88927894 128.51267086 51.27467692 117.46425575 C50.19394873 110.06730133 49.11771998 102.66971066 48.04491782 95.27160275 C47.37807867 90.67982531 46.70727912 86.08863289 46.03538322 81.49759293 C45.72492253 79.37057182 45.41610602 77.24330998 45.10906029 75.11579323 C44.68961332 72.21105849 44.26427801 69.30724413 43.8374939 66.40357971 C43.71764676 65.56351287 43.59779963 64.72344603 43.47432077 63.85792261 C42.65793861 55.47010247 42.65793861 55.47010247 38.56962585 48.74543762 C36.02556395 48.07721151 33.82767208 47.92335667 31.19458008 47.9284668 C29.64695732 47.92286995 29.64695732 47.92286995 28.06806946 47.91716003 C26.95763779 47.9212941 25.84720612 47.92542816 24.703125 47.9296875 C22.34179116 47.91426328 19.98046293 47.89795931 17.61914062 47.88085938 C13.90408939 47.86443303 10.18944965 47.85545757 6.47436523 47.86254883 C2.88348148 47.86517811 -0.70615789 47.83697421 -4.296875 47.8046875 C-5.39718552 47.81489426 -6.49749603 47.82510101 -7.63114929 47.83561707 C-14.78467928 47.74555705 -19.83114589 46.46396144 -25.62890625 42.16796875 C-30.69780416 36.96567879 -33.05832382 31.55098649 -33.06640625 24.29296875 C-32.88842166 17.24774531 -31.85125548 12.57357955 -26.98046875 7.42578125 C-19.00768866 0.14931383 -10.33609796 0.01175869 0 0 Z " fill="#000000" transform="translate(32.62890625,10.83203125)"/>
<path d="M0 0 C3.61613341 2.75839826 6.83402079 5.74003996 10 9 C10.56074219 9.54011719 11.12148438 10.08023437 11.69921875 10.63671875 C22.54486362 21.93782377 26.50254383 37.84618065 26.34960938 53.01904297 C25.90781296 68.06698719 19.80571508 81.99378393 9.31640625 92.8203125 C-3.1719708 104.57160153 -17.70203395 110.97910874 -35 111 C-44.81011329 110.42600401 -53.23432413 108.4384734 -62 104 C-62.86238281 103.56816406 -63.72476562 103.13632812 -64.61328125 102.69140625 C-78.46775445 95.08545129 -88.02905197 82.00879971 -92.52734375 66.96484375 C-92.68332031 66.31644531 -92.83929688 65.66804688 -93 65 C-93.18046875 64.27683594 -93.3609375 63.55367188 -93.546875 62.80859375 C-96.35051216 45.43087722 -93.18163977 28.47083771 -83 14 C-73.76427371 1.73050084 -60.24293329 -6.52063502 -45.203125 -9.56640625 C-28.65163333 -11.80691305 -14.31237141 -8.68127446 0 0 Z " fill="#000000" transform="translate(422,390)"/>
<path d="M0 0 C0.67804688 0.48984375 1.35609375 0.9796875 2.0546875 1.484375 C3.0653125 2.20625 4.0759375 2.928125 5.1171875 3.671875 C16.84404225 13.83514912 23.23906659 29.24444853 24.33984375 44.4140625 C24.90315659 60.98784502 20.61700696 75.31158592 9.5546875 87.921875 C8.07304543 89.46059876 6.5746953 90.98353847 5.0546875 92.484375 C4.51457031 93.04640625 3.97445312 93.6084375 3.41796875 94.1875 C-6.7539549 103.9238501 -21.68362016 108.44635902 -35.4453125 108.859375 C-51.96836317 108.38217498 -66.14860961 102.00884628 -77.9453125 90.484375 C-88.63169788 78.17497204 -94.76702848 62.77165467 -94.234375 46.33203125 C-92.52112127 29.45416677 -86.4944965 14.94792169 -74.0390625 3.171875 C-51.72691632 -14.81104879 -23.54807083 -16.45920522 0 0 Z " fill="#000000" transform="translate(217.9453125,391.515625)"/>
</svg>
