<?xml version="1.0" encoding="UTF-8"?>
<svg version="1.1" xmlns="http://www.w3.org/2000/svg" width="512" height="512">
<path d="M0 0 C4.17328274 1.83450235 7.99276135 4.18276236 11.875 6.5625 C13.02233513 7.24794234 14.17079697 7.93150185 15.3203125 8.61328125 C17.70461527 10.02938635 20.08389494 11.45342181 22.45996094 12.88330078 C27.92896019 16.16526087 33.46799295 19.32587001 39 22.5 C41.16437717 23.74815242 43.32843877 24.99685222 45.4921875 26.24609375 C49.85065388 28.76069436 54.21012191 31.27354661 58.5703125 33.78515625 C70.04227095 40.39518945 81.50025859 47.02770442 92.9284668 53.71313477 C98.26178001 56.83015514 103.6055804 59.92781669 108.96484375 63 C109.54835602 63.33491455 110.13186829 63.6698291 110.73306274 64.01489258 C113.54846702 65.63081992 116.36539838 67.24392523 119.18554688 68.8515625 C134.81858796 77.81858796 134.81858796 77.81858796 138 81 C138.11444264 83.09966897 138.1575051 85.20323386 138.17408752 87.30595398 C138.18058648 87.9722776 138.18708543 88.63860121 138.19378132 89.32511646 C138.21428051 91.57439816 138.22742644 93.82366163 138.24047852 96.07299805 C138.25328373 97.67915605 138.26641906 99.28531144 138.27986145 100.89146423 C138.39586846 115.56732064 138.45240658 130.24386302 138.49662876 144.92009258 C138.52987678 155.77317554 138.58943406 166.62542424 138.68413979 177.47814912 C138.74843946 185.10366657 138.78216095 192.72895652 138.79337829 200.35473472 C138.80094502 204.91160866 138.82217582 209.46747598 138.87640572 214.02405357 C138.92684649 218.31306922 138.93944844 222.60054529 138.92315483 226.88981056 C138.9237586 228.46282775 138.93803986 230.03590902 138.96710205 231.60865784 C139.1752398 243.49534034 139.1752398 243.49534034 136.24973106 247.24086952 C134.22159415 248.79172426 132.30803565 249.92356125 130 251 C129.12923828 251.54527344 128.25847656 252.09054687 127.36132812 252.65234375 C126.20793945 253.28849609 126.20793945 253.28849609 125.03125 253.9375 C124.14332764 254.43233887 123.25540527 254.92717773 122.34057617 255.43701172 C121.40318604 255.95279785 120.4657959 256.46858398 119.5 257 C117.44320123 258.14698765 115.38723712 259.29547308 113.33203125 260.4453125 C112.28225098 261.0321582 111.2324707 261.61900391 110.15087891 262.22363281 C105.13143915 265.05343629 100.15868389 267.96149618 95.1875 270.875 C83.58086235 277.66933694 71.93606666 284.39590102 60.28222656 291.10888672 C55.93418415 293.61408878 51.58759335 296.12180212 47.24121094 298.62988281 C45.0910368 299.87049247 42.94064826 301.11073062 40.79003906 302.35058594 C35.74478488 305.25960268 30.70127294 308.17151405 25.66400146 311.09432983 C23.88319999 312.1274294 22.10184142 313.15956171 20.3203125 314.19140625 C18.08742917 315.48506088 15.8555909 316.78052164 13.625 318.078125 C11.63934238 319.22758329 9.64843316 320.36803743 7.65136719 321.49755859 C5.99751447 322.4347418 4.35506316 323.39270907 2.73144531 324.38134766 C-0.53233378 326.25586826 -2.54660002 327.049549 -6.32421875 326.63671875 C-11.44204895 324.65566973 -16.12679823 321.631811 -20.8125 318.8125 C-22.96701695 317.5357308 -25.12198015 316.25971442 -27.27734375 314.984375 C-28.94192627 313.9953418 -28.94192627 313.9953418 -30.64013672 312.98632812 C-36.02683294 309.80175027 -41.4506542 306.68237174 -46.875 303.5625 C-49.05995444 302.30348712 -51.24484997 301.044372 -53.4296875 299.78515625 C-54.51475586 299.16012207 -55.59982422 298.53508789 -56.71777344 297.89111328 C-63.22871257 294.13971976 -69.73663194 290.38309006 -76.24511719 286.62744141 C-81.68585336 283.48817754 -87.12731477 280.35018503 -92.5703125 277.21484375 C-99.04988306 273.48175981 -105.52589411 269.74255192 -112 266 C-113.09812012 265.36578125 -114.19624023 264.7315625 -115.32763672 264.078125 C-118.57452579 262.20123333 -121.81886828 260.32001426 -125.0625 258.4375 C-126.0313916 257.87796631 -127.0002832 257.31843262 -127.99853516 256.74194336 C-142.96108557 248.03891443 -142.96108557 248.03891443 -146 245 C-146.1078603 242.89566713 -146.14414241 240.7876605 -146.15390015 238.68058777 C-146.16047353 237.67898565 -146.16047353 237.67898565 -146.1671797 236.65714914 C-146.18061282 234.40318458 -146.18675662 232.14925915 -146.19287109 229.89526367 C-146.20076852 228.28586142 -146.20903724 226.67646095 -146.21765137 225.06706238 C-146.24391321 219.76738181 -146.25918315 214.46769317 -146.2734375 209.16796875 C-146.27879547 207.34632168 -146.28417297 205.52467468 -146.28956985 203.70302773 C-146.3112047 196.12745315 -146.32994272 188.55188074 -146.34119225 180.97628307 C-146.35743907 170.10540919 -146.39062756 159.23489234 -146.44759309 148.36415309 C-146.48624699 140.7284647 -146.50581953 133.09287198 -146.51111281 125.45708829 C-146.51477256 120.89272563 -146.52685935 116.32874339 -146.55921555 111.76448631 C-146.58921641 107.47080562 -146.59563687 103.17773711 -146.58383179 98.88397408 C-146.58361038 97.30693662 -146.59197104 95.72987142 -146.60948563 94.15293121 C-146.63208427 92.00133257 -146.62392944 89.85197133 -146.60800171 87.70036316 C-146.61131186 86.49595675 -146.614622 85.29155035 -146.61803246 84.05064678 C-146 81 -146 81 -143.62085915 78.6807909 C-141.01929712 77.01237549 -138.42311481 75.38693965 -135.73828125 73.85546875 C-134.71541016 73.26894531 -133.69253906 72.68242188 -132.63867188 72.078125 C-131.54103516 71.45421875 -130.44339844 70.8303125 -129.3125 70.1875 C-128.15013283 69.52258588 -126.98802819 68.85721263 -125.82617188 68.19140625 C-123.4145854 66.8099087 -121.00188656 65.43038435 -118.58837891 64.05224609 C-113.04829045 60.88661445 -107.52506019 57.69176113 -102 54.5 C-99.83341204 53.24986359 -97.66674512 51.999864 -95.5 50.75 C-94.4275 50.13125 -93.355 49.5125 -92.25 48.875 C-56.5 28.25 -56.5 28.25 -53.24438477 26.37182617 C-51.09635954 25.13253733 -48.94840925 23.89311859 -46.80053711 22.65356445 C-41.71344451 19.71797433 -36.62558153 16.78374328 -31.5350647 13.85409546 C-29.12456252 12.46671905 -26.71448624 11.07860376 -24.30444336 9.69042969 C-22.59856032 8.70826185 -20.89206014 7.72716615 -19.18554688 6.74609375 C-17.64157227 5.85664062 -17.64157227 5.85664062 -16.06640625 4.94921875 C-15.15834229 4.42674561 -14.25027832 3.90427246 -13.31469727 3.3659668 C-8.52264859 0.5380465 -5.64001043 -1.10765507 0 0 Z M-25 72 C-26.10080607 74.76109253 -26.10080607 74.76109253 -26.5625 77.875 C-27.57595568 82.54252645 -28.3085048 85.73038997 -32 89 C-37.61052947 92.30939927 -42.27615454 92.42739165 -48.66015625 92.59375 C-52.25247946 93.03071095 -54.15889846 93.78967513 -57 96 C-58.61456863 100.8437059 -58.22615798 105.80260983 -58.25 110.875 C-58.270625 111.96425781 -58.29125 113.05351562 -58.3125 114.17578125 C-58.31765625 115.22894531 -58.3228125 116.28210938 -58.328125 117.3671875 C-58.3374707 118.32737793 -58.34681641 119.28756836 -58.35644531 120.27685547 C-57.9306057 123.53015347 -56.96785873 125.39059858 -55 128 C-45.8239442 131.05868527 -35.67241209 129 -26 129 C-26 159.36 -26 189.72 -26 221 C-31.94 221 -37.88 221 -44 221 C-49.14462031 223.34920863 -49.14462031 223.34920863 -50 227 C-50.25853371 230.95399893 -50.23137931 234.91344802 -50.25 238.875 C-50.270625 239.96425781 -50.29125 241.05351562 -50.3125 242.17578125 C-50.31765625 243.22894531 -50.3228125 244.28210938 -50.328125 245.3671875 C-50.3374707 246.32737793 -50.34681641 247.28756836 -50.35644531 248.27685547 C-49.9306057 251.53015347 -48.96785873 253.39059858 -47 256 C-43.41014549 257.19661817 -40.13199185 257.15540577 -36.39501953 257.16113281 C-35.23598114 257.16858017 -35.23598114 257.16858017 -34.05352783 257.17617798 C-31.49661367 257.19078638 -28.93976154 257.19759916 -26.3828125 257.203125 C-24.60545856 257.20887726 -22.82810464 257.21463499 -21.05075073 257.22039795 C-17.32338166 257.23090398 -13.59603414 257.23674934 -9.86865234 257.24023438 C-5.09475496 257.24572021 -0.32114263 257.26975177 4.45266533 257.29820633 C8.12440827 257.31683792 11.79608259 257.32203857 15.4678688 257.32357025 C17.22771896 257.32659581 18.98756793 257.3346211 20.74737167 257.34775543 C23.21054482 257.36482802 25.67302201 257.36293299 28.13623047 257.35644531 C29.22428482 257.37026749 29.22428482 257.37026749 30.33432007 257.3843689 C34.71098004 257.34829466 37.55970014 256.76621137 41 254 C42.61456863 249.1562941 42.22615798 244.19739017 42.25 239.125 C42.270625 238.03574219 42.29125 236.94648438 42.3125 235.82421875 C42.31765625 234.77105469 42.3228125 233.71789062 42.328125 232.6328125 C42.3374707 231.67262207 42.34681641 230.71243164 42.35644531 229.72314453 C41.9306057 226.46984653 40.96785873 224.60940142 39 222 C36.23434618 221.07811539 34.61716298 220.88214778 31.76953125 220.90234375 C30.96708984 220.90556641 30.16464844 220.90878906 29.33789062 220.91210938 C28.50451172 220.92048828 27.67113281 220.92886719 26.8125 220.9375 C25.96751953 220.94201172 25.12253906 220.94652344 24.25195312 220.95117188 C22.16793845 220.96294597 20.08396023 220.9808811 18 221 C18.00276538 220.25216405 18.00553076 219.5043281 18.00837994 218.73383045 C18.07462532 200.53956135 18.12427354 182.3453163 18.15543652 164.15095234 C18.17090716 155.35229983 18.19200043 146.5537278 18.22631836 137.75512695 C18.25621469 130.08650207 18.27557357 122.41793547 18.28226548 114.74925393 C18.28617735 110.68851423 18.29537482 106.62794129 18.31719017 102.56725502 C18.33755907 98.7448243 18.34383302 94.92262899 18.33932304 91.10014915 C18.34014807 89.69769893 18.34611148 88.2952408 18.35761642 86.89283752 C18.37256493 84.97661543 18.36716072 83.06026691 18.36076355 81.14399719 C18.36352893 80.07195195 18.36629431 78.99990671 18.36914349 77.89537525 C17.94221375 74.54675381 17.04221417 72.672127 15 70 C9.68543029 68.22847676 3.94252388 68.77439711 -1.62353516 68.75976562 C-3.86007953 68.75006472 -6.09570261 68.71903228 -8.33203125 68.6875 C-9.76041123 68.68096884 -11.18879776 68.67571881 -12.6171875 68.671875 C-13.91253418 68.6625293 -15.20788086 68.65318359 -16.54248047 68.64355469 C-20.22606798 69.02330598 -22.10635591 69.72663863 -25 72 Z " fill="#000000" transform="translate(260,42)"/>
<path d="M0 0 C2.65527344 1.06298828 2.65527344 1.06298828 5.359375 2.5703125 C6.3793457 3.12992676 7.39931641 3.68954102 8.45019531 4.26611328 C9.53913086 4.8795459 10.62806641 5.49297852 11.75 6.125 C13.49551706 7.0873227 15.24104502 8.0496263 16.98724365 9.01071167 C18.79695063 10.00865797 20.60368408 11.01183707 22.41015625 12.015625 C27.9920461 15.11014639 33.62453452 18.11070817 39.25 21.125 C41.38969555 22.27795456 43.52902146 23.43159537 45.66796875 24.5859375 C49.93763636 26.88990949 54.21177079 29.18532062 58.48828125 31.4765625 C60.51318231 32.56740864 62.53792903 33.65854135 64.5625 34.75 C65.50319336 35.25160645 66.44388672 35.75321289 67.41308594 36.27001953 C68.26805664 36.73263184 69.12302734 37.19524414 70.00390625 37.671875 C71.13034546 38.27660645 71.13034546 38.27660645 72.27954102 38.89355469 C74 40 74 40 75 42 C75.09101612 43.8485708 75.11753146 45.70046379 75.11352539 47.55126953 C75.11341209 49.29284836 75.11341209 49.29284836 75.11329651 51.0696106 C75.10813522 52.32796722 75.10297394 53.58632385 75.09765625 54.8828125 C75.0962413 56.16735321 75.09482635 57.45189392 75.09336853 58.77536011 C75.08954911 62.19156842 75.07972373 65.60773426 75.06866455 69.02392578 C75.05843807 72.50943426 75.05386826 75.9949496 75.04882812 79.48046875 C75.03810096 86.32032995 75.02103142 93.16016294 75 100 C76.38010254 100.43759644 76.38010254 100.43759644 77.78808594 100.8840332 C81.58356843 102.20275854 84.83801933 104.1085258 88.25 106.1875 C89.76618915 107.09498405 91.28316888 108.00114806 92.80078125 108.90625 C93.62916504 109.40125 94.45754883 109.89625 95.31103516 110.40625 C100.32667865 113.3790229 105.38418227 116.27939472 110.4375 119.1875 C111.54319336 119.82453857 112.64888672 120.46157715 113.78808594 121.11791992 C116.06024082 122.42700657 118.33254009 123.73584262 120.60498047 125.04443359 C126.0716998 128.19332054 131.53574887 131.34683264 137 134.5 C139.16665311 135.7500235 141.33331979 137.00002347 143.5 138.25 C147.83333333 140.75 152.16666667 143.25 156.5 145.75 C157.57266113 146.36883057 158.64532227 146.98766113 159.75048828 147.62524414 C161.91557071 148.87435518 164.08060982 150.12354129 166.24560547 151.37280273 C171.68615706 154.51202309 177.12747216 157.64990563 182.5703125 160.78515625 C193.39364167 167.02127925 204.20821351 173.27191602 215 179.5625 C215.9605127 180.12203369 216.92102539 180.68156738 217.91064453 181.25805664 C218.82700684 181.79293701 219.74336914 182.32781738 220.6875 182.87890625 C221.57050781 183.38953613 222.45351562 183.90016602 223.36328125 184.42626953 C225.17845066 185.50965675 226.96680982 186.63883446 228.73046875 187.80419922 C229.60316406 188.37283691 230.47585937 188.94147461 231.375 189.52734375 C232.14585937 190.0493335 232.91671875 190.57132324 233.7109375 191.10913086 C235.99540644 192.25746509 235.99540644 192.25746509 238.43286133 191.35253906 C241.21613118 189.88612775 243.97172423 188.40054772 246.69921875 186.83203125 C247.81248535 186.19386475 248.92575195 185.55569824 250.07275391 184.89819336 C251.27771682 184.20304466 252.4826309 183.5078113 253.6875 182.8125 C254.94434799 182.09031382 256.20134912 181.3683941 257.45849609 180.64672852 C260.68637148 178.79256933 263.91189349 176.93436047 267.13653564 175.07458496 C269.99525204 173.42607817 272.85518454 171.77968312 275.71484375 170.1328125 C281.07278109 167.04520824 286.42792501 163.95279067 291.78222656 160.85888672 C297.18670649 157.73675393 302.59350107 154.61863474 308 151.5 C309.07121094 150.88189453 310.14242188 150.26378906 311.24609375 149.62695312 C316.68646075 146.48777626 322.12762955 143.35000371 327.5703125 140.21484375 C338.06232547 134.1694458 348.54444755 128.10827103 359 122 C361.94666555 120.28045322 364.89362368 118.56140983 367.84082031 116.84277344 C370.07502172 115.53954683 372.30872213 114.23548411 374.54199219 112.93066406 C377.56414181 111.16556737 380.58905611 109.40528832 383.61572266 107.64794922 C385.34580928 106.64197323 387.07331937 105.63157031 388.80078125 104.62109375 C390.36505859 103.71423828 390.36505859 103.71423828 391.9609375 102.7890625 C392.88696777 102.24975098 393.81299805 101.71043945 394.76708984 101.15478516 C397 100 397 100 399 100 C398.99333817 99.28003342 398.98667633 98.56006683 398.97981262 97.81828308 C398.91971543 91.03512593 398.8740327 84.25200854 398.84456348 77.46865368 C398.82890365 73.98118424 398.8076602 70.49393468 398.77368164 67.0065918 C398.7348672 62.99786257 398.7202935 58.98936452 398.70703125 54.98046875 C398.69154739 53.72727341 398.67606354 52.47407806 398.66011047 51.1829071 C398.65988388 50.02193008 398.65965729 48.86095306 398.65942383 47.66479492 C398.64943108 46.12924202 398.64943108 46.12924202 398.63923645 44.56266785 C399.05742736 41.59206728 399.64691602 40.7839092 402 39 C403.80419547 37.92009213 405.64441095 36.89959981 407.50390625 35.91796875 C408.6242627 35.32266357 409.74461914 34.7273584 410.89892578 34.11401367 C412.12011357 33.47183556 413.34130507 32.82966451 414.5625 32.1875 C415.82308388 31.51925817 417.08333341 30.85038526 418.34326172 30.1809082 C420.94373601 28.79952983 423.5454029 27.42043913 426.14794922 26.04296875 C431.98709744 22.94953534 437.80634411 19.81928681 443.625 16.6875 C445.22855347 15.82813843 445.22855347 15.82813843 446.86450195 14.95141602 C451.74953669 12.32635639 456.60907457 9.67157632 461.4140625 6.90234375 C462.23825684 6.43030518 463.06245117 5.9582666 463.91162109 5.47192383 C465.41338474 4.60689668 466.9091251 3.73127881 468.39697266 2.8425293 C472.40554576 0.53585712 475.36191868 -0.76407698 480 0 C481.6427002 1.10316467 481.6427002 1.10316467 483 3 C483.39440918 6.02928162 483.39440918 6.02928162 483.41992188 9.79467773 C483.42839142 10.48119415 483.43686096 11.16771057 483.44558716 11.87503052 C483.468989 14.14473997 483.46997863 16.41377278 483.46875 18.68359375 C483.4758498 20.26156384 483.48354853 21.83953135 483.49182129 23.41749573 C483.50527344 26.72542496 483.50683171 30.03311551 483.50097656 33.34106445 C483.49508017 37.57955181 483.52566452 41.81689379 483.56609344 46.05515957 C483.59194793 49.31429714 483.59484996 52.57315812 483.59120178 55.83238411 C483.59289523 57.39490703 483.60255948 58.95744243 483.62034607 60.51986504 C483.64249356 62.70599791 483.63285952 64.88980259 483.61523438 67.07592773 C483.61728882 68.31930405 483.61934326 69.56268036 483.62145996 70.84373474 C483 74 483 74 480.73527527 76.32408142 C478.34813629 77.78669493 476.25542557 78.83776458 473.62036133 79.73876953 C468.51064155 81.76867827 463.73350693 83.84697011 460 88 C457.04171834 95.44353915 458.21242199 104.05349367 458.6875 111.875 C458.81380834 115.11907926 458.91442105 118.36181842 458.99067688 121.60745239 C459.04536676 123.6186615 459.13298284 125.6293093 459.25724792 127.63742065 C459.54321825 134.392641 459.54321825 134.392641 456.78759766 137.47363281 C455.86769043 137.97733398 454.9477832 138.48103516 454 139 C453.24162842 139.47034668 452.48325684 139.94069336 451.7019043 140.42529297 C450.91726807 140.85986816 450.13263184 141.29444336 449.32421875 141.7421875 C447.97783325 142.49411377 447.97783325 142.49411377 446.60424805 143.26123047 C445.64172119 143.79377441 444.67919434 144.32631836 443.6875 144.875 C435.4753591 149.46649632 427.30537799 154.11875178 419.1875 158.875 C407.58076114 165.66916553 395.93606804 172.39590022 384.28222656 179.10888672 C378.85340058 182.23680148 373.42680719 185.36858448 368 188.5 C365.83334417 189.75001879 363.6666775 191.00001878 361.5 192.25 C360.4275 192.86875 359.355 193.4875 358.25 194.125 C296.5 229.75 296.5 229.75 293.24609375 231.62719727 C291.0923828 232.86976019 288.93873633 234.11243489 286.78515625 235.35522461 C281.76315738 238.25314623 276.74057193 241.15003349 271.71557617 244.04275513 C269.94954478 245.05947198 268.18372569 246.07655658 266.41796875 247.09375 C264.21265845 248.36400873 262.00695784 249.63359018 259.80078125 250.90234375 C258.79402344 251.48242188 257.78726562 252.0625 256.75 252.66015625 C255.780625 253.21461426 254.81125 253.76907227 253.8125 254.34033203 C251.95248939 255.43793204 250.11767305 256.57950798 248.3125 257.76513672 C240.22362988 263.03184198 240.22362988 263.03184198 235.10058594 262.58251953 C230.33918005 261.26212036 226.28323069 258.53219481 222.125 255.9375 C219.97979357 254.64219036 217.83393788 253.3479555 215.6875 252.0546875 C214.5840625 251.38276367 213.480625 250.71083984 212.34375 250.01855469 C206.98511499 246.7836544 201.55477712 243.67597217 196.125 240.5625 C193.93986372 239.30380275 191.75496907 238.04468592 189.5703125 236.78515625 C188.48524414 236.16012207 187.40017578 235.53508789 186.28222656 234.89111328 C180.85340058 231.76319852 175.42680719 228.63141552 170 225.5 C167.83334417 224.24998121 165.6666775 222.99998122 163.5 221.75 C133.16666667 204.25 102.83333333 186.75 72.5 169.25 C71.4262915 168.63060547 70.35258301 168.01121094 69.24633789 167.37304688 C67.09169376 166.129877 64.93723243 164.88639025 62.78295898 163.64257812 C57.77245879 160.75016853 52.76037365 157.86064773 47.74136353 154.98303223 C45.98271251 153.97451686 44.22466791 152.9649523 42.46679688 151.95507812 C40.27527769 150.69649482 38.08265496 149.43983013 35.88867188 148.18554688 C17.77120114 137.77120114 17.77120114 137.77120114 15 135 C14.98690053 133.5869009 15.04328538 132.17307374 15.12792969 130.76245117 C17.62505288 106.92292287 17.62505288 106.92292287 11.92822266 84.6328125 C7.06300231 80.22602273 1.50010971 78.00632648 -4.86108398 76.58276367 C-7 76 -7 76 -9 74 C-9.26069641 71.08424377 -9.26069641 71.08424377 -9.2746582 67.30297852 C-9.27976913 66.61500183 -9.28488007 65.92702515 -9.29014587 65.21820068 C-9.30407421 62.93834798 -9.30308269 60.6587965 -9.30078125 58.37890625 C-9.30466652 56.7971129 -9.30900084 55.2153206 -9.31376648 53.63352966 C-9.32123573 50.31546652 -9.32093243 46.99750976 -9.31567383 43.67944336 C-9.3098794 39.42430021 -9.32680581 35.16959237 -9.3500185 30.91452122 C-9.36474061 27.64688057 -9.36562962 24.37934511 -9.36250877 21.11167717 C-9.3630228 19.54276607 -9.36827569 17.9738492 -9.37832069 16.40497017 C-9.39063823 14.21183002 -9.38392245 12.01954221 -9.37231445 9.82641602 C-9.37294388 8.57780289 -9.3735733 7.32918976 -9.3742218 6.04273987 C-9 3 -9 3 -7.65501404 1.09510803 C-5.0424505 -0.63360197 -3.06063103 -0.33854017 0 0 Z " fill="#000000" transform="translate(19,208)"/>
<path d="M0 0 C6.23080583 0.17642282 11.21444886 3.6131654 16.4921875 6.6328125 C18.22206869 7.59422676 19.95196516 8.55561475 21.68276978 9.5153656 C23.47490373 10.51167053 25.26299715 11.51495732 27.05078125 12.51904297 C32.6551472 15.65671736 38.32861074 18.66635025 43.9921875 21.6953125 C52.0447925 26.0292767 60.09091745 30.37524915 68.1171875 34.7578125 C68.95427246 35.2118042 69.79135742 35.6657959 70.65380859 36.13354492 C71.41516113 36.55095947 72.17651367 36.96837402 72.9609375 37.3984375 C73.62287109 37.75969727 74.28480469 38.12095703 74.96679688 38.49316406 C76.6171875 39.5078125 76.6171875 39.5078125 78.6171875 41.5078125 C78.87788391 44.46826172 78.87788391 44.46826172 78.8918457 48.3125 C78.89695663 49.01183655 78.90206757 49.7111731 78.90733337 50.43170166 C78.92126061 52.74882508 78.92027048 55.06565215 78.91796875 57.3828125 C78.92185363 58.98942171 78.92618787 60.59602988 78.93095398 62.20263672 C78.93842267 65.57197396 78.93812 68.94120643 78.93286133 72.31054688 C78.92706218 76.63528779 78.944005 80.95960107 78.967206 85.28427124 C78.98191315 88.60248333 78.98281925 91.92059166 78.97969627 95.23883057 C78.98021089 96.83368783 78.98547487 98.42855068 78.99550819 100.02337646 C79.00779901 102.25024501 79.00112654 104.47627069 78.98950195 106.703125 C78.99013138 107.97172363 78.9907608 109.24032227 78.9914093 110.54736328 C78.86791611 111.52431152 78.74442291 112.50125977 78.6171875 113.5078125 C75.10446071 115.84963036 73.75052972 115.87131028 69.6171875 115.5078125 C66.99023438 114.50488281 66.99023438 114.50488281 64.3359375 113.0859375 C63.34086182 112.56136963 62.34578613 112.03680176 61.32055664 111.49633789 C60.26344482 110.92262451 59.20633301 110.34891113 58.1171875 109.7578125 C56.45320923 108.87307251 56.45320923 108.87307251 54.75561523 107.97045898 C51.36823704 106.16384118 47.99129833 104.3390714 44.6171875 102.5078125 C43.18270264 101.73171631 43.18270264 101.73171631 41.71923828 100.93994141 C37.25662488 98.52259246 32.80294993 96.08959582 28.35546875 93.64453125 C24.09645452 91.30738683 19.82026828 89.0036879 15.53515625 86.71484375 C14.9377211 86.39526199 14.34028595 86.07568024 13.7247467 85.74641418 C10.79131604 84.17730052 7.85627764 82.61146284 4.91821289 81.05102539 C3.86496826 80.48762451 2.81172363 79.92422363 1.7265625 79.34375 C0.78780273 78.84407715 -0.15095703 78.3444043 -1.11816406 77.82958984 C-3.3828125 76.5078125 -3.3828125 76.5078125 -5.3828125 74.5078125 C-5.63677979 71.54736328 -5.63677979 71.54736328 -5.64160156 67.703125 C-5.6451062 67.00378845 -5.64861084 66.3044519 -5.65222168 65.58392334 C-5.66104126 63.26678612 -5.6551892 60.94995295 -5.6484375 58.6328125 C-5.64978409 57.02620383 -5.65172457 55.41959555 -5.65423584 53.81298828 C-5.6571874 50.44364548 -5.65288847 47.07440863 -5.64355469 43.70507812 C-5.63216008 39.38041756 -5.63871939 35.05600521 -5.65069962 30.73135376 C-5.65791738 27.4131482 -5.65563069 24.09500175 -5.65044403 20.77679443 C-5.6491073 19.1819455 -5.65075608 17.58709125 -5.65540314 15.99224854 C-5.66046706 13.76552052 -5.65276038 11.53919774 -5.64160156 9.3125 C-5.64001038 8.04390137 -5.63841919 6.77530273 -5.63677979 5.46826172 C-5.26345815 1.11652112 -4.26127767 0.63968371 0 0 Z " fill="#000000" transform="translate(15.3828125,94.4921875)"/>
<path d="M0 0 C2.8400462 2.8400462 2.2917801 4.77636411 2.35400391 8.75708008 C2.3737175 9.79885658 2.3737175 9.79885658 2.39382935 10.86167908 C2.43330921 13.1643007 2.45662228 15.46666142 2.4765625 17.76953125 C2.48471355 18.55580084 2.49286461 19.34207043 2.50126266 20.15216637 C2.54299074 24.31408006 2.57159033 28.47586177 2.59033203 32.63793945 C2.61246158 36.93624899 2.68124943 41.23248735 2.76067543 45.53006458 C2.8129835 48.83554411 2.8297128 52.14052933 2.83689499 55.44638634 C2.84663465 57.03052444 2.86988747 58.61463985 2.90697098 60.19837379 C3.17852665 72.56488321 3.17852665 72.56488321 0.3565979 76.00120544 C-1.72426347 77.33097219 -3.67462974 78.18460493 -6 79 C-6.95116699 79.53810303 -7.90233398 80.07620605 -8.88232422 80.63061523 C-9.7642041 81.10184814 -10.64608398 81.57308105 -11.5546875 82.05859375 C-12.56877686 82.60241699 -13.58286621 83.14624023 -14.62768555 83.70654297 C-16.2351062 84.5633667 -16.2351062 84.5633667 -17.875 85.4375 C-19.59998035 86.36147791 -21.32495823 87.28546049 -23.04978943 88.2097168 C-24.83664233 89.1668107 -26.62410675 90.12275539 -28.41162109 91.07861328 C-33.06430438 93.56807268 -37.70875264 96.07277711 -42.35302734 98.57788086 C-44.55927975 99.76694397 -46.76662159 100.95398808 -48.97509766 102.13891602 C-53.58638342 104.61322126 -58.19064046 107.09427828 -62.75390625 109.65625 C-63.78801636 110.22980225 -63.78801636 110.22980225 -64.84301758 110.81494141 C-66.58254416 111.78191419 -68.31510186 112.76139655 -70.046875 113.7421875 C-73.34657098 115.14761357 -75.4523875 115.48556707 -79 115 C-80.64459229 113.89875793 -80.64459229 113.89875793 -82 112 C-82.42132568 108.98417664 -82.42132568 108.98417664 -82.48339844 105.23706055 C-82.49829315 104.55375671 -82.51318787 103.87045288 -82.52853394 103.16644287 C-82.57233871 100.90644251 -82.59279265 98.64707382 -82.609375 96.38671875 C-82.62663587 94.81354255 -82.64390899 93.24036649 -82.66119385 91.66719055 C-82.6927075 88.36769679 -82.71024519 85.0684219 -82.72070312 81.76879883 C-82.73714846 77.54762689 -82.80919825 73.32936346 -82.89461899 69.1091032 C-82.95060043 65.85844083 -82.96611969 62.608474 -82.97071075 59.35737038 C-82.97977162 57.8019503 -83.00379738 56.24654071 -83.0432663 54.69159508 C-83.32908636 42.56450477 -83.32908636 42.56450477 -80.11039734 38.7756958 C-77.79827995 37.19999771 -75.58090141 36.06807135 -73 35 C-72.08130127 34.4745459 -71.16260254 33.9490918 -70.21606445 33.40771484 C-69.439646 33.01277832 -68.66322754 32.6178418 -67.86328125 32.2109375 C-66.96778564 31.75066162 -66.07229004 31.29038574 -65.1496582 30.81616211 C-64.213396 30.34057861 -63.27713379 29.86499512 -62.3125 29.375 C-54.42969807 25.31613058 -46.59093265 21.19316477 -38.8125 16.9375 C-37.91490967 16.44910645 -37.01731934 15.96071289 -36.0925293 15.45751953 C-31.51487739 12.95866597 -26.96952028 10.41562098 -22.45703125 7.80078125 C-21.56072998 7.28845947 -20.66442871 6.7761377 -19.7409668 6.24829102 C-18.05051844 5.28008929 -16.36771151 4.29836547 -14.69458008 3.30053711 C-9.51259766 0.35027127 -5.97676871 -0.70933079 0 0 Z " fill="#000000" transform="translate(500,95)"/>
</svg>
